<?xml version="1.0" encoding="UTF-8" standalone="no"?>
<!-- Created with Inkscape (http://www.inkscape.org/) -->

<svg
   width="1280"
   height="720"
   viewBox="0 0 338.66667 190.5"
   version="1.1"
   id="svg1"
   inkscape:version="1.3 (0e150ed6c4, 2023-07-21)"
   sodipodi:docname="AbilityIcons.svg"
   xml:space="preserve"
   xmlns:inkscape="http://www.inkscape.org/namespaces/inkscape"
   xmlns:sodipodi="http://sodipodi.sourceforge.net/DTD/sodipodi-0.dtd"
   xmlns="http://www.w3.org/2000/svg"
   xmlns:svg="http://www.w3.org/2000/svg"><sodipodi:namedview
     id="namedview1"
     pagecolor="#595959"
     bordercolor="#000000"
     borderopacity="0"
     inkscape:showpageshadow="0"
     inkscape:pageopacity="0"
     inkscape:pagecheckerboard="false"
     inkscape:deskcolor="#666666"
     inkscape:document-units="px"
     borderlayer="true"
     showborder="true"
     inkscape:zoom="5.6568543"
     inkscape:cx="68.589358"
     inkscape:cy="306.88434"
     inkscape:window-width="1920"
     inkscape:window-height="1010"
     inkscape:window-x="1913"
     inkscape:window-y="-6"
     inkscape:window-maximized="1"
     inkscape:current-layer="layer1" /><defs
     id="defs1"><inkscape:path-effect
       effect="offset"
       id="path-effect30"
       is_visible="true"
       lpeversion="1.2"
       linejoin_type="miter"
       unit="mm"
       offset="0.3"
       miter_limit="4"
       attempt_force_join="false"
       update_on_knot_move="true" /><inkscape:path-effect
       effect="offset"
       id="path-effect4"
       is_visible="true"
       lpeversion="1.2"
       linejoin_type="miter"
       unit="mm"
       offset="0.25"
       miter_limit="4"
       attempt_force_join="false"
       update_on_knot_move="true" /><inkscape:path-effect
       effect="offset"
       id="path-effect29"
       is_visible="true"
       lpeversion="1.2"
       linejoin_type="miter"
       unit="mm"
       offset="0.4"
       miter_limit="4"
       attempt_force_join="false"
       update_on_knot_move="true" /><inkscape:path-effect
       effect="fillet_chamfer"
       id="path-effect28"
       is_visible="true"
       lpeversion="1"
       nodesatellites_param="F,0,0,1,0,0.5,0,1 @ F,0,0,1,0,0.5,0,1 @ F,0,0,1,0,0.5,0,1 @ F,0,0,1,0,0.5,0,1 @ F,0,0,1,0,0.5,0,1 @ F,0,0,1,0,0.5,0,1 @ F,0,0,1,0,0.5,0,1 @ F,0,0,1,0,0.5,0,1 @ F,0,0,1,0,0.5,0,1 @ F,0,0,1,0,0.5,0,1 @ F,0,0,1,0,0.5,0,1 @ F,0,0,1,0,0.5,0,1"
       radius="0.5"
       unit="px"
       method="auto"
       mode="F"
       chamfer_steps="1"
       flexible="false"
       use_knot_distance="true"
       apply_no_radius="true"
       apply_with_radius="true"
       only_selected="false"
       hide_knots="false" /><inkscape:path-effect
       effect="offset"
       id="path-effect9"
       is_visible="true"
       lpeversion="1.2"
       linejoin_type="miter"
       unit="mm"
       offset="0.2"
       miter_limit="4"
       attempt_force_join="false"
       update_on_knot_move="true" /><inkscape:path-effect
       effect="offset"
       id="path-effect5"
       is_visible="true"
       lpeversion="1.2"
       linejoin_type="miter"
       unit="mm"
       offset="0.2"
       miter_limit="4"
       attempt_force_join="true"
       update_on_knot_move="true" /><filter
       style="color-interpolation-filters:sRGB;"
       inkscape:label="Feather"
       id="filter37"
       x="-0.055048301"
       y="-0.20718178"
       width="1.1100966"
       height="1.4143636"><feGaussianBlur
         stdDeviation="0.5"
         result="blur"
         id="feGaussianBlur35" /><feComposite
         in="SourceGraphic"
         in2="blur"
         operator="atop"
         result="composite1"
         id="feComposite35" /><feComposite
         in2="composite1"
         operator="in"
         result="composite2"
         id="feComposite36" /><feComposite
         in2="composite2"
         operator="in"
         result="composite3"
         id="feComposite37" /></filter></defs><g
     inkscape:label="Layer 1"
     inkscape:groupmode="layer"
     id="layer1"
     style="display:inline"><g
       id="g37"
       transform="matrix(1.362975,0,0,1.3730944,-41.826078,-15.429065)"
       inkscape:export-filename="Heal.png"
       inkscape:export-xdpi="192"
       inkscape:export-ydpi="192"><path
         id="path28"
         style="fill:#000000;fill-opacity:1;stroke:none;stroke-width:0.735597;stroke-linejoin:round"
         d="m 38.475362,45.146486 c -0.348169,0 -0.628139,0.277907 -0.628139,0.62351 v 3.135132 c 0,0.03685 -0.03237,0.06898 -0.06949,0.06898 h -3.15841 c -0.348168,0 -0.628139,0.277907 -0.628139,0.62351 v 3.428627 c 0,0.345602 0.279971,0.62351 0.628139,0.62351 h 3.15841 c 0.03712,0 0.06949,0.03213 0.06949,0.06898 v 3.136484 c 0,0.345603 0.27997,0.62351 0.628139,0.62351 h 3.454085 c 0.348169,0 0.62814,-0.277907 0.628139,-0.62351 v -3.136484 c 0,-0.03685 0.03237,-0.06898 0.06949,-0.06898 h 3.159772 c 0.348168,0 0.628139,-0.277908 0.628139,-0.62351 v -3.428627 c 0,-0.345603 -0.279971,-0.62351 -0.628139,-0.62351 h -3.159772 c -0.03712,0 -0.06949,-0.03213 -0.06949,-0.06898 v -3.135132 c 0,-0.345603 -0.27997,-0.62351 -0.628139,-0.62351 z" /><path
         id="rect27"
         style="fill:#2cae2c;fill-opacity:1;stroke:none;stroke-width:0.735597;stroke-linejoin:round"
         d="m 38.12701,45.76943 v 3.136183 a 0.34881486,0.34624405 0 0 1 -0.348815,0.346244 h -3.159468 a 0.34881486,0.34624405 0 0 0 -0.348815,0.346244 v 3.427832 a 0.34881486,0.34624405 0 0 0 0.348815,0.346244 h 3.159468 a 0.34881486,0.34624405 0 0 1 0.348815,0.346244 v 3.136184 a 0.34881486,0.34624405 0 0 0 0.348815,0.346244 h 3.453284 a 0.34881486,0.34624405 0 0 0 0.348815,-0.346244 v -3.136184 a 0.34881486,0.34624405 0 0 1 0.348815,-0.346244 h 3.159468 a 0.34881486,0.34624405 0 0 0 0.348815,-0.346244 V 49.598101 A 0.34881486,0.34624405 0 0 0 45.786207,49.251857 H 42.626739 A 0.34881486,0.34624405 0 0 1 42.277924,48.905613 V 45.76943 A 0.34881486,0.34624405 0 0 0 41.929109,45.423185 H 38.475825 A 0.34881486,0.34624405 0 0 0 38.12701,45.76943 Z" /></g><g
       id="g5"
       transform="matrix(0.87546578,0,0,0.84847326,-23.342557,-16.780068)"
       inkscape:export-filename="Fireball.png"
       inkscape:export-xdpi="192"
       inkscape:export-ydpi="192"><path
         id="path5"
         style="fill:#000000;fill-opacity:1;stroke:none;stroke-width:1.06495;stroke-linejoin:round"
         d="m 32.427734,26.369141 5.814453,6.753906 -6.18164,-6.0625 4.419922,5.757812 -4.771485,-4.529297 8.652344,10.527344 -0.769531,-0.6875 0.148437,0.253906 -5.771484,-5.43164 4.115234,6.132812 0.0098,0.01172 c 4.290541,4.752728 9.577685,7.980177 11.878906,7.080078 2.426696,-0.952086 0.576006,-5.705609 -3.732422,-10.498047 -0.384526,-0.42769 -0.782778,-0.848542 -1.191406,-1.259765 l -2.636719,-2.652344 2.65625,3.314453 -6.044922,-5.734375 5.671875,6.908203 c -0.613624,-0.465023 -1.215331,-0.921764 -1.742187,-1.322265 -0.0017,-0.0013 -0.0042,-0.0026 -0.0059,-0.0039 l -7.802735,-7.285156 6.308594,7.529297 z" /><g
         id="g3"
         transform="matrix(0.73602635,-0.28877173,0.91427692,1.0170016,-23.158463,11.639403)"><path
           id="ellipse2"
           style="fill:#e3221c;fill-opacity:1;stroke:none;stroke-width:2.03497;stroke-linejoin:round"
           d="m 41.509292,29.047969 -0.728678,5.212602 -0.629226,-4.159436 -0.860959,10.688753 -1.225298,-7.687386 -1.065068,4.26899 a 5.3653145,8.485611 0 0 0 5.363038,8.434111 5.3653145,8.485611 0 0 0 5.365314,-8.485787 5.3653145,8.485611 0 0 0 -0.0585,-1.248503 l -0.26586,2.560051 -0.861285,-5.686992 -0.629225,7.740096 -1.688767,-10.05675 -0.49662,7.792806 -1.059867,-8.530229 -0.264885,6.687447 z" /><path
           id="path2"
           style="fill:#e3931c;stroke-width:1.469;stroke-linejoin:round"
           d="M 41.553572,34.857304 40.35836,41.702364 39.478603,38.568189 39.376383,39.75468 39.0249,38.1 37.963745,41.059509 a 4.397241,5.395422 0 0 0 0.0017,0.0098 4.397241,5.395422 0 0 0 0.21952,0.721403 4.397241,5.395422 0 0 0 0.300374,0.675411 4.397241,5.395422 0 0 0 0.376201,0.615983 4.397241,5.395422 0 0 0 0.443649,0.54467 4.397241,5.395422 0 0 0 0.50188,0.460953 4.397241,5.395422 0 0 0 0.550896,0.36897 4.397241,5.395422 0 0 0 0.587761,0.269234 4.397241,5.395422 0 0 0 0.612897,0.163298 4.397241,5.395422 0 0 0 0.625884,0.05529 4.397241,5.395422 0 0 0 0.625885,-0.05529 4.397241,5.395422 0 0 0 0.612897,-0.163298 4.397241,5.395422 0 0 0 0.587762,-0.269234 4.397241,5.395422 0 0 0 0.550895,-0.368453 4.397241,5.395422 0 0 0 0.502299,-0.46147 4.397241,5.395422 0 0 0 0.44365,-0.544153 4.397241,5.395422 0 0 0 0.375781,-0.6165 4.397241,5.395422 0 0 0 0.300793,-0.675411 4.397241,5.395422 0 0 0 0.219102,-0.721403 4.397241,5.395422 0 0 0 0.133639,-0.752409 4.397241,5.395422 0 0 0 0.03603,-0.6165 c -0.136675,-0.350887 -0.28861,-0.743071 -0.457054,-1.18184 l -0.08044,0.446485 0.0063,-0.288872 -0.177208,0.393775 -0.06368,-1.375627 c -0.269407,-0.705089 -0.516636,-1.355575 -0.735644,-1.932698 l -0.609128,3.308842 -0.195641,-3.837492 c -0.665018,1.905528 -1.34142,3.934123 -1.34142,4.310848 0,0.737164 -1.365718,-4.686536 -1.365718,-4.686536 z" /><path
           id="path1"
           style="fill:#e3e31c;fill-opacity:1;stroke:none;stroke-width:1.05833;stroke-linejoin:round"
           d="m 44.323755,37.969819 c -0.19604,1.604053 -0.392792,3.187099 -0.418062,3.288172 -0.02429,0.09714 -0.161028,-0.583703 -0.300757,-1.33997 l -0.19172,0.702799 -0.211873,-2.269629 -0.717269,3.012219 -0.331246,-1.887223 -0.601514,2.298568 -0.747241,-2.615861 -0.268201,1.625224 -0.551904,-2.354895 -0.98702,3.553788 a 3.5184696,3.4998534 0 0 0 3.318144,2.359029 3.5184696,3.4998534 0 0 0 3.464388,-2.896464 l -0.901754,-2.988448 a 3.5184696,3.4998534 0 0 0 -0.553971,-0.487309 z" /></g></g><g
       id="g27"
       transform="matrix(1.0125408,0,0,1.0145013,-30.669891,-17.593448)"
       inkscape:export-filename="RainOfArrows.png"
       inkscape:export-xdpi="192"
       inkscape:export-ydpi="192"><g
         id="g13"
         transform="matrix(-1.1312899,0.65315052,-0.65315052,-1.1312899,116.07388,68.595941)"><path
           id="path9"
           style="fill:#000000;stroke-width:0.949082;stroke-linejoin:round"
           d="m 40.248047,31.603516 -0.785156,2.83789 0.339843,0.271485 v 6.080078 l -0.326172,0.474609 v 2.242188 l 0.53125,-0.775391 h 0.480469 l 0.53125,0.775391 v -2.242188 l -0.324219,-0.476562 v -6.078125 l 0.339844,-0.271485 z" /><g
           id="g12"><path
             id="path10"
             style="fill:#ffffff;stroke-width:0.949082;stroke-linejoin:round"
             d="m 39.676526,41.330066 0.571789,-0.834727 0.571788,0.834727 v 1.535897 l -0.571788,-0.834727 -0.571789,0.834727 z"
             sodipodi:nodetypes="ccccccc" /><path
             id="path11"
             style="fill:#b3b3b3;stroke-width:1.05833;stroke-linejoin:round"
             inkscape:transform-center-y="-0.33560966"
             transform="matrix(0.47958347,0,0,1,20.945888,0)"
             d="m 40.248314,32.35296 1.162584,2.013655 -1.162584,0.446789 -1.162584,-0.44679 z"
             sodipodi:nodetypes="ccccc" /><path
             id="path12"
             style="fill:#502d16;stroke-width:1.31688;stroke-linejoin:round"
             d="m 40.001649,34.615742 h 0.493331 v 7.920083 h -0.493331 z" /></g></g><g
         id="g17"
         transform="matrix(-0.95042774,0.54872971,-0.54872971,-0.95042774,107.17351,62.130874)"><path
           id="path13"
           style="fill:#000000;stroke-width:0.949082;stroke-linejoin:round"
           d="m 40.248047,31.603516 -0.785156,2.83789 0.339843,0.271485 v 6.080078 l -0.326172,0.474609 v 2.242188 l 0.53125,-0.775391 h 0.480469 l 0.53125,0.775391 v -2.242188 l -0.324219,-0.476562 v -6.078125 l 0.339844,-0.271485 z" /><g
           id="g16"><path
             id="path14"
             style="fill:#ffffff;stroke-width:0.949082;stroke-linejoin:round"
             d="m 39.676526,41.330066 0.571789,-0.834727 0.571788,0.834727 v 1.535897 l -0.571788,-0.834727 -0.571789,0.834727 z"
             sodipodi:nodetypes="ccccccc" /><path
             id="path15"
             style="fill:#b3b3b3;stroke-width:1.05833;stroke-linejoin:round"
             inkscape:transform-center-y="-0.33560966"
             transform="matrix(0.47958347,0,0,1,20.945888,0)"
             d="m 40.248314,32.35296 1.162584,2.013655 -1.162584,0.446789 -1.162584,-0.44679 z"
             sodipodi:nodetypes="ccccc" /><path
             id="path16"
             style="fill:#502d16;stroke-width:1.31688;stroke-linejoin:round"
             d="m 40.001649,34.615742 h 0.493331 v 7.920083 h -0.493331 z" /></g></g><g
         id="g21"
         transform="matrix(-0.62253454,0.35942048,-0.35942048,-0.62253454,78.82207,56.357334)"><path
           id="path17"
           style="fill:#000000;stroke-width:0.949082;stroke-linejoin:round"
           d="m 40.248047,31.603516 -0.785156,2.83789 0.339843,0.271485 v 6.080078 l -0.326172,0.474609 v 2.242188 l 0.53125,-0.775391 h 0.480469 l 0.53125,0.775391 v -2.242188 l -0.324219,-0.476562 v -6.078125 l 0.339844,-0.271485 z" /><g
           id="g20"><path
             id="path18"
             style="fill:#ffffff;stroke-width:0.949082;stroke-linejoin:round"
             d="m 39.676526,41.330066 0.571789,-0.834727 0.571788,0.834727 v 1.535897 l -0.571788,-0.834727 -0.571789,0.834727 z"
             sodipodi:nodetypes="ccccccc" /><path
             id="path19"
             style="fill:#b3b3b3;stroke-width:1.05833;stroke-linejoin:round"
             inkscape:transform-center-y="-0.33560966"
             transform="matrix(0.47958347,0,0,1,20.945888,0)"
             d="m 40.248314,32.35296 1.162584,2.013655 -1.162584,0.446789 -1.162584,-0.44679 z"
             sodipodi:nodetypes="ccccc" /><path
             id="path20"
             style="fill:#502d16;stroke-width:1.31688;stroke-linejoin:round"
             d="m 40.001649,34.615742 h 0.493331 v 7.920083 h -0.493331 z" /></g></g><g
         id="g26"
         transform="rotate(150,37.458589,44.470833)"><path
           id="path22"
           style="fill:#000000;stroke-width:0.949082;stroke-linejoin:round"
           d="m 40.248047,31.603516 -0.785156,2.83789 0.339843,0.271485 v 6.080078 l -0.326172,0.474609 v 2.242188 l 0.53125,-0.775391 h 0.480469 l 0.53125,0.775391 v -2.242188 l -0.324219,-0.476562 v -6.078125 l 0.339844,-0.271485 z" /><g
           id="g25"><path
             id="path23"
             style="fill:#ffffff;stroke-width:0.949082;stroke-linejoin:round"
             d="m 39.676526,41.330066 0.571789,-0.834727 0.571788,0.834727 v 1.535897 l -0.571788,-0.834727 -0.571789,0.834727 z"
             sodipodi:nodetypes="ccccccc" /><path
             id="path24"
             style="fill:#b3b3b3;stroke-width:1.05833;stroke-linejoin:round"
             inkscape:transform-center-y="-0.33560966"
             transform="matrix(0.47958347,0,0,1,20.945888,0)"
             d="m 40.248314,32.35296 1.162584,2.013655 -1.162584,0.446789 -1.162584,-0.44679 z"
             sodipodi:nodetypes="ccccc" /><path
             id="path25"
             style="fill:#502d16;stroke-width:1.31688;stroke-linejoin:round"
             d="m 40.001649,34.615742 h 0.493331 v 7.920083 h -0.493331 z" /></g></g></g><g
       id="g7"
       transform="matrix(1,0,0,0.98646769,-7.2114224,-10.154202)"
       inkscape:export-filename="Halt.png"
       inkscape:export-xdpi="191.99998"
       inkscape:export-ydpi="191.99998"><path
         id="rect7"
         style="fill:#ffffff;fill-opacity:0;stroke-width:0.935029;stroke-linejoin:round"
         d="M 11.332891,78.539619 H 28.266226 V 95.472954 H 11.332891 Z" /><g
         id="g6"
         transform="matrix(0.68950527,0,0,0.68950527,-19.20263,25.937963)"><path
           style="fill:#000000;fill-opacity:1;stroke-width:1.05833;stroke-linejoin:round"
           d="m 57.103516,76.121094 c -0.558499,0.01893 -1.160523,0.289808 -1.371094,0.863281 -0.311385,0.848032 0.615077,10.509483 0.591797,10.695312 -0.0015,6e-6 -0.0024,6.2e-5 -0.0039,0 -0.0013,-5.5e-5 -0.0026,1.06e-4 -0.0039,0 -0.06703,-0.214849 -0.706071,-8.998459 -1.068359,-9.791015 -0.486907,-1.065174 -2.24792,-1.07843 -2.679688,0.09961 -0.322847,0.88086 0.369748,10.924924 0.154297,13.425781 -0.784246,-1.056335 -2.056377,-3.919041 -2.572265,-4.316406 -0.779941,-0.600752 -2.521419,-0.04251 -2.59375,1.197266 -0.06395,1.096164 1.704203,5.370841 3.103515,7.691406 0.780994,1.295168 1.693099,2.706483 3.015625,3.578125 0.94731,0.624347 2.174712,0.770777 3.216797,0.984377 1.189772,0.24386 2.517481,0.60762 3.779297,0.41015 0.955971,-0.1496 2.084238,-0.49113 2.78125,-1.269527 1.430154,-1.59714 1.634263,-3.973247 1.949219,-5.955078 0.621183,-3.908753 -0.598262,-11.152928 -0.826172,-11.958984 -0.300453,-1.062622 -1.749805,-1.294246 -2.175781,-0.263672 -0.07224,0.174772 -0.129621,0.696572 -0.175782,1.371093 -0.05211,-2.130791 -0.140758,-4.117799 -0.30664,-4.53125 -0.470376,-1.172376 -2.268861,-1.283908 -2.720703,-0.107421 -0.111091,0.289252 -0.152616,1.307268 -0.16211,2.539062 C 58.917181,78.848619 58.766078,77.171537 58.583984,76.853516 58.281365,76.325 57.657929,76.1023 57.103516,76.121094 Z"
           id="path4"
           sodipodi:nodetypes="zzzzzzzzzzzzzzzsssssszzz" /><path
           style="fill:#deaa87;fill-opacity:1;stroke-width:1.05833;stroke-linejoin:round"
           d="m 52.94459,92.038698 c 0.555616,-0.235393 -0.3592,-13.046483 -0.03723,-13.924949 0.32197,-0.878466 1.663778,-0.833087 2.010553,-0.07447 0.346774,0.758617 0.950732,9.58453 1.079743,9.829374 0.129011,0.244844 0.576275,0.226903 0.670184,-0.03723 0.09391,-0.264132 -0.887373,-9.928658 -0.595719,-10.722954 0.291654,-0.794297 1.756132,-0.843938 2.196716,-0.07447 0.440584,0.769468 0.636448,10.505882 0.744651,10.722957 0.108203,0.217074 0.437115,0.172533 0.484021,-0.148931 0.04691,-0.321464 -0.291572,-8.377535 0.03723,-9.233654 0.328802,-0.856119 1.694165,-0.769684 2.047788,0.111696 0.353623,0.88138 0.327079,10.133927 0.372324,10.425097 0.04525,0.29117 0.325076,0.258511 0.409557,0.07446 0.08448,-0.184052 0.0864,-6.643066 0.372325,-7.3348 0.285921,-0.691735 1.27784,-0.524479 1.489299,0.223395 0.211459,0.747873 1.434656,7.929462 0.819117,11.802698 -0.317245,1.996238 -0.513245,4.265219 -1.861624,5.771036 -0.626265,0.699387 -1.641526,1.009057 -2.56904,1.154207 -1.209182,0.18923 -2.449812,-0.16381 -3.648785,-0.40956 -1.053901,-0.216018 -2.192031,-0.338788 -3.090296,-0.930811 -1.257808,-0.828988 -2.126237,-2.172589 -2.904133,-3.46262 -1.391238,-2.307175 -3.109952,-6.508623 -3.053064,-7.483729 0.05689,-0.975107 1.485649,-1.335121 2.010553,-0.930812 0.524903,0.404308 2.460214,4.889463 3.01583,4.65407 z"
           id="path3"
           sodipodi:nodetypes="zzzzzzzzzzzzzzzsssssszzz" /><path
           style="fill:#d9986e;fill-opacity:1;stroke-width:1.05833;stroke-linejoin:round"
           d="m 65.045149,93.676917 c -0.317245,1.996238 -0.513245,4.265219 -1.861624,5.771036 -0.626265,0.699387 -1.641526,1.009057 -2.56904,1.154207 -1.209182,0.18923 -2.449812,-0.16381 -3.648785,-0.40956 -1.053901,-0.216018 -2.192031,-0.338788 -3.090296,-0.930811 -1.257808,-0.828988 -2.126237,-2.172589 -2.904133,-3.46262 5.174718,3.563803 10.686809,2.323444 14.073878,-2.122252 z"
           id="path6"
           sodipodi:nodetypes="csssscc" /></g></g><rect
       style="fill:#ffffff;fill-opacity:1;stroke-width:0.935029;stroke-linejoin:round"
       id="rect6"
       width="16.933334"
       height="16.933334"
       x="68.373055"
       y="3.0321405" /><g
       id="g31"
       transform="translate(0.51799511,-0.79512685)"
       inkscape:export-filename="Charge.png"
       inkscape:export-xdpi="191.99998"
       inkscape:export-ydpi="191.99998"><rect
         style="fill:none;fill-opacity:1;stroke-width:0.935029;stroke-linejoin:round"
         id="rect29"
         width="16.933334"
         height="16.933334"
         x="4.5982509"
         y="87.830086" /><g
         id="g30"
         transform="matrix(1.2302269,0,0,1.2302269,-3.0426112,-16.893883)"><path
           style="fill:#000000;fill-opacity:1;stroke-width:1.05833;stroke-linejoin:round"
           d="m 18.912744,87.185433 c -0.120705,0.01977 -0.269815,0.04304 -4.64126,0.990348 -0.07934,-0.03235 -0.155869,-0.04662 -0.203125,-0.04883 -0.188923,-0.0082 -2.270966,0.389503 -2.541015,0.539063 -0.0714,0.03954 -0.135567,0.101457 -0.207031,0.171875 -0.06536,0.0644 -0.147767,0.148432 -0.240235,0.246093 -0.08338,0.08806 -0.176908,0.189843 -0.277344,0.298828 -0.09043,0.09813 -0.185099,0.202358 -0.285156,0.3125 -0.7148294,0.786888 0.172763,-0.236255 -2.0585936,2.314454 l -2.2480469,0.751953 1.8085938,4.11914 2.5312497,-0.839843 2.3125,-0.22461 0.04102,-0.01758 c 2.915302,-1.192352 3.542195,-1.469458 3.457031,-1.435547 0.04735,-0.02553 0.185556,-0.127512 0.533203,-0.541015 l 0.06055,-0.07227 0.0078,-0.09375 c 0.02173,-0.240867 9.74e-4,-0.774574 -0.38086,-1.009766 l -0.01758,-0.0098 -0.04883,-0.02148 c 0.238963,-0.287312 0.177732,-0.318348 0.177734,-0.318359 0.03699,-0.20955 -0.115724,-0.643258 -0.238281,-0.787109 0,0 0.01807,-0.0149 -0.158203,-0.146485 0.168623,-0.268687 0.183594,-0.361329 0.183594,-0.361328 0.09183,-0.277575 -0.05602,-0.928728 -0.259766,-1.140625 4.938098,-1.461679 2.868564,-0.849421 3.294922,-0.986328 0.723398,-0.23231 0.541828,-1.629355 -0.1875,-1.734375 -0.06252,-0.009 -0.123518,-0.0062 -0.173828,0.002 0,0 -0.119389,0.02285 -0.241553,0.04285 z"
           id="path29"
           sodipodi:nodetypes="zzczzczzccczccccczzczccccccsccz" /><path
           style="fill:#502d16;fill-opacity:1;stroke-width:1.05833;stroke-linejoin:round"
           d="m 19.201872,87.439309 c 0.46002,-0.0743 0.67645,1.00388 0.22219,1.14976 -0.45427,0.14587 -4.210775,1.25919 -4.210775,1.25919 0,0 0.66928,0.0999 0.790343,0.21806 0.121063,0.1182 0.250375,0.66262 0.190874,0.84247 -0.0595,0.17985 -0.309871,0.53228 -0.309871,0.53228 0,0 0.273075,0.18203 0.342256,0.26327 0.06918,0.0812 0.188749,0.43987 0.171127,0.53971 -0.01762,0.0998 -0.381746,0.47389 -0.381746,0.47389 l 0.408073,0.18429 c 0.225861,0.13912 0.256271,0.53979 0.239342,0.72747 0,0 -0.339748,0.40365 -0.476287,0.48359 -0.136541,0.0799 -3.396226,1.40851 -3.396226,1.40851 l -2.303642,0.22379 -2.3036435,0.76349 -1.5664764,-3.56736 2.0140404,-0.67134 c 0,0 2.8121455,-3.21693 3.0408095,-3.34357 0.228664,-0.12664 2.275814,-0.50488 2.382623,-0.50023 0.106808,0.005 0.171126,0.0658 0.171126,0.0658 0,0 4.515843,-0.97882 4.975863,-1.05307 z"
           id="path7"
           sodipodi:nodetypes="zzczzczzccczccccczzcz" /><path
           id="path8"
           style="fill:#3c2211;fill-opacity:1;stroke-width:1.05833;stroke-linejoin:round"
           d="m 19.672157,88.060918 c -1.52285,0.81909 -3.169854,1.29676 -4.814176,1.781804 l 0.481624,0.02636 c -0.07369,-0.01297 -0.12609,-0.02067 -0.12609,-0.02067 0,0 3.756326,-1.113485 4.210596,-1.259354 0.192163,-0.06171 0.263592,-0.290571 0.248046,-0.528134 z m -3.474205,2.580722 c -0.186045,0.503126 -0.618503,0.705079 -1.081072,0.870231 l 0.780831,-0.06201 c -10e-4,-6.84e-4 -0.01292,-0.0088 -0.01292,-0.0088 0,0 0.250042,-0.352417 0.309542,-0.532267 0.01948,-0.05888 0.0177,-0.157886 0.0036,-0.267167 z m 0.03049,1.065051 c 0.08904,0.521686 -0.153402,0.83938 -0.465605,1.114144 l 0.260449,-0.09974 -0.0072,-0.0031 c 0,0 0.364269,-0.374073 0.381889,-0.473873 0.01751,-0.09921 -0.100132,-0.453307 -0.169499,-0.537435 z m 0.391191,1.490348 c -0.664555,0.967918 -2.412176,1.518906 -4.031796,2.34456 l 0.203089,-0.01964 c 0,0 3.260151,-1.3288 3.396692,-1.4087 0.136539,-0.07994 0.47594,-0.483691 0.47594,-0.483691 0.0095,-0.105287 0.0025,-0.276965 -0.04393,-0.432532 z"
           sodipodi:nodetypes="ccccscccccscccccsccccccc" /></g></g></g></svg>
