<?xml version="1.0" encoding="UTF-8" standalone="no"?>
<!-- Created with Inkscape (http://www.inkscape.org/) -->

<svg
   width="1280"
   height="720"
   viewBox="0 0 338.66667 190.5"
   version="1.1"
   id="svg1"
   inkscape:version="1.3 (0e150ed6c4, 2023-07-21)"
   sodipodi:docname="AbilityIcons.svg"
   xmlns:inkscape="http://www.inkscape.org/namespaces/inkscape"
   xmlns:sodipodi="http://sodipodi.sourceforge.net/DTD/sodipodi-0.dtd"
   xmlns="http://www.w3.org/2000/svg"
   xmlns:svg="http://www.w3.org/2000/svg">
  <sodipodi:namedview
     id="namedview1"
     pagecolor="#595959"
     bordercolor="#000000"
     borderopacity="0"
     inkscape:showpageshadow="0"
     inkscape:pageopacity="0"
     inkscape:pagecheckerboard="false"
     inkscape:deskcolor="#666666"
     inkscape:document-units="px"
     borderlayer="true"
     showborder="true"
     inkscape:zoom="3.553125"
     inkscape:cx="94.846086"
     inkscape:cy="86.965699"
     inkscape:window-width="1920"
     inkscape:window-height="1010"
     inkscape:window-x="1913"
     inkscape:window-y="-6"
     inkscape:window-maximized="1"
     inkscape:current-layer="layer1" />
  <defs
     id="defs1">
    <inkscape:path-effect
       effect="offset"
       id="path-effect29"
       is_visible="true"
       lpeversion="1.2"
       linejoin_type="miter"
       unit="mm"
       offset="0.4"
       miter_limit="4"
       attempt_force_join="false"
       update_on_knot_move="true" />
    <inkscape:path-effect
       effect="fillet_chamfer"
       id="path-effect28"
       is_visible="true"
       lpeversion="1"
       nodesatellites_param="F,0,0,1,0,0.5,0,1 @ F,0,0,1,0,0.5,0,1 @ F,0,0,1,0,0.5,0,1 @ F,0,0,1,0,0.5,0,1 @ F,0,0,1,0,0.5,0,1 @ F,0,0,1,0,0.5,0,1 @ F,0,0,1,0,0.5,0,1 @ F,0,0,1,0,0.5,0,1 @ F,0,0,1,0,0.5,0,1 @ F,0,0,1,0,0.5,0,1 @ F,0,0,1,0,0.5,0,1 @ F,0,0,1,0,0.5,0,1"
       radius="0.5"
       unit="px"
       method="auto"
       mode="F"
       chamfer_steps="1"
       flexible="false"
       use_knot_distance="true"
       apply_no_radius="true"
       apply_with_radius="true"
       only_selected="false"
       hide_knots="false" />
    <inkscape:path-effect
       effect="offset"
       id="path-effect9"
       is_visible="true"
       lpeversion="1.2"
       linejoin_type="miter"
       unit="mm"
       offset="0.2"
       miter_limit="4"
       attempt_force_join="false"
       update_on_knot_move="true" />
    <inkscape:path-effect
       effect="offset"
       id="path-effect5"
       is_visible="true"
       lpeversion="1.2"
       linejoin_type="miter"
       unit="mm"
       offset="0.2"
       miter_limit="4"
       attempt_force_join="true"
       update_on_knot_move="true" />
    <filter
       style="color-interpolation-filters:sRGB;"
       inkscape:label="Feather"
       id="filter37"
       x="-0.055048301"
       y="-0.20718178"
       width="1.1100966"
       height="1.4143636">
      <feGaussianBlur
         stdDeviation="0.5"
         result="blur"
         id="feGaussianBlur35" />
      <feComposite
         in="SourceGraphic"
         in2="blur"
         operator="atop"
         result="composite1"
         id="feComposite35" />
      <feComposite
         in2="composite1"
         operator="in"
         result="composite2"
         id="feComposite36" />
      <feComposite
         in2="composite2"
         operator="in"
         result="composite3"
         id="feComposite37" />
    </filter>
  </defs>
  <g
     inkscape:label="Layer 1"
     inkscape:groupmode="layer"
     id="layer1">
    <g
       id="g37"
       transform="matrix(1.362975,0,0,1.3730944,-41.826078,-15.429065)">
      <path
         id="path28"
         style="fill:#000000;fill-opacity:1;stroke:none;stroke-width:0.735597;stroke-linejoin:round"
         d="m 38.475362,45.146486 c -0.348169,0 -0.628139,0.277907 -0.628139,0.62351 v 3.135132 c 0,0.03685 -0.03237,0.06898 -0.06949,0.06898 h -3.15841 c -0.348168,0 -0.628139,0.277907 -0.628139,0.62351 v 3.428627 c 0,0.345602 0.279971,0.62351 0.628139,0.62351 h 3.15841 c 0.03712,0 0.06949,0.03213 0.06949,0.06898 v 3.136484 c 0,0.345603 0.27997,0.62351 0.628139,0.62351 h 3.454085 c 0.348169,0 0.62814,-0.277907 0.628139,-0.62351 v -3.136484 c 0,-0.03685 0.03237,-0.06898 0.06949,-0.06898 h 3.159772 c 0.348168,0 0.628139,-0.277908 0.628139,-0.62351 v -3.428627 c 0,-0.345603 -0.279971,-0.62351 -0.628139,-0.62351 h -3.159772 c -0.03712,0 -0.06949,-0.03213 -0.06949,-0.06898 v -3.135132 c 0,-0.345603 -0.27997,-0.62351 -0.628139,-0.62351 z" />
      <path
         id="rect27"
         style="fill:#2cae2c;fill-opacity:1;stroke:none;stroke-width:0.735597;stroke-linejoin:round"
         d="m 38.12701,45.76943 v 3.136183 a 0.34881486,0.34624405 0 0 1 -0.348815,0.346244 h -3.159468 a 0.34881486,0.34624405 0 0 0 -0.348815,0.346244 v 3.427832 a 0.34881486,0.34624405 0 0 0 0.348815,0.346244 h 3.159468 a 0.34881486,0.34624405 0 0 1 0.348815,0.346244 v 3.136184 a 0.34881486,0.34624405 0 0 0 0.348815,0.346244 h 3.453284 a 0.34881486,0.34624405 0 0 0 0.348815,-0.346244 v -3.136184 a 0.34881486,0.34624405 0 0 1 0.348815,-0.346244 h 3.159468 a 0.34881486,0.34624405 0 0 0 0.348815,-0.346244 V 49.598101 A 0.34881486,0.34624405 0 0 0 45.786207,49.251857 H 42.626739 A 0.34881486,0.34624405 0 0 1 42.277924,48.905613 V 45.76943 A 0.34881486,0.34624405 0 0 0 41.929109,45.423185 H 38.475825 A 0.34881486,0.34624405 0 0 0 38.12701,45.76943 Z" />
    </g>
    <g
       id="g5"
       transform="matrix(0.87546578,0,0,0.84847326,-23.342557,-16.780068)">
      <path
         id="path5"
         style="fill:#000000;fill-opacity:1;stroke:none;stroke-width:1.06495;stroke-linejoin:round"
         d="m 32.427734,26.369141 5.814453,6.753906 -6.18164,-6.0625 4.419922,5.757812 -4.771485,-4.529297 8.652344,10.527344 -0.769531,-0.6875 0.148437,0.253906 -5.771484,-5.43164 4.115234,6.132812 0.0098,0.01172 c 4.290541,4.752728 9.577685,7.980177 11.878906,7.080078 2.426696,-0.952086 0.576006,-5.705609 -3.732422,-10.498047 -0.384526,-0.42769 -0.782778,-0.848542 -1.191406,-1.259765 l -2.636719,-2.652344 2.65625,3.314453 -6.044922,-5.734375 5.671875,6.908203 c -0.613624,-0.465023 -1.215331,-0.921764 -1.742187,-1.322265 -0.0017,-0.0013 -0.0042,-0.0026 -0.0059,-0.0039 l -7.802735,-7.285156 6.308594,7.529297 z" />
      <g
         id="g3"
         transform="matrix(0.73602635,-0.28877173,0.91427692,1.0170016,-23.158463,11.639403)">
        <path
           id="ellipse2"
           style="fill:#e3221c;fill-opacity:1;stroke:none;stroke-width:2.03497;stroke-linejoin:round"
           d="m 41.509292,29.047969 -0.728678,5.212602 -0.629226,-4.159436 -0.860959,10.688753 -1.225298,-7.687386 -1.065068,4.26899 a 5.3653145,8.485611 0 0 0 5.363038,8.434111 5.3653145,8.485611 0 0 0 5.365314,-8.485787 5.3653145,8.485611 0 0 0 -0.0585,-1.248503 l -0.26586,2.560051 -0.861285,-5.686992 -0.629225,7.740096 -1.688767,-10.05675 -0.49662,7.792806 -1.059867,-8.530229 -0.264885,6.687447 z" />
        <path
           id="path2"
           style="fill:#e3931c;stroke-width:1.469;stroke-linejoin:round"
           d="M 41.553572,34.857304 40.35836,41.702364 39.478603,38.568189 39.376383,39.75468 39.0249,38.1 37.963745,41.059509 a 4.397241,5.395422 0 0 0 0.0017,0.0098 4.397241,5.395422 0 0 0 0.21952,0.721403 4.397241,5.395422 0 0 0 0.300374,0.675411 4.397241,5.395422 0 0 0 0.376201,0.615983 4.397241,5.395422 0 0 0 0.443649,0.54467 4.397241,5.395422 0 0 0 0.50188,0.460953 4.397241,5.395422 0 0 0 0.550896,0.36897 4.397241,5.395422 0 0 0 0.587761,0.269234 4.397241,5.395422 0 0 0 0.612897,0.163298 4.397241,5.395422 0 0 0 0.625884,0.05529 4.397241,5.395422 0 0 0 0.625885,-0.05529 4.397241,5.395422 0 0 0 0.612897,-0.163298 4.397241,5.395422 0 0 0 0.587762,-0.269234 4.397241,5.395422 0 0 0 0.550895,-0.368453 4.397241,5.395422 0 0 0 0.502299,-0.46147 4.397241,5.395422 0 0 0 0.44365,-0.544153 4.397241,5.395422 0 0 0 0.375781,-0.6165 4.397241,5.395422 0 0 0 0.300793,-0.675411 4.397241,5.395422 0 0 0 0.219102,-0.721403 4.397241,5.395422 0 0 0 0.133639,-0.752409 4.397241,5.395422 0 0 0 0.03603,-0.6165 c -0.136675,-0.350887 -0.28861,-0.743071 -0.457054,-1.18184 l -0.08044,0.446485 0.0063,-0.288872 -0.177208,0.393775 -0.06368,-1.375627 c -0.269407,-0.705089 -0.516636,-1.355575 -0.735644,-1.932698 l -0.609128,3.308842 -0.195641,-3.837492 c -0.665018,1.905528 -1.34142,3.934123 -1.34142,4.310848 0,0.737164 -1.365718,-4.686536 -1.365718,-4.686536 z" />
        <path
           id="path1"
           style="fill:#e3e31c;fill-opacity:1;stroke:none;stroke-width:1.05833;stroke-linejoin:round"
           d="m 44.323755,37.969819 c -0.19604,1.604053 -0.392792,3.187099 -0.418062,3.288172 -0.02429,0.09714 -0.161028,-0.583703 -0.300757,-1.33997 l -0.19172,0.702799 -0.211873,-2.269629 -0.717269,3.012219 -0.331246,-1.887223 -0.601514,2.298568 -0.747241,-2.615861 -0.268201,1.625224 -0.551904,-2.354895 -0.98702,3.553788 a 3.5184696,3.4998534 0 0 0 3.318144,2.359029 3.5184696,3.4998534 0 0 0 3.464388,-2.896464 l -0.901754,-2.988448 a 3.5184696,3.4998534 0 0 0 -0.553971,-0.487309 z" />
      </g>
    </g>
    <g
       id="g27"
       transform="matrix(1.0125408,0,0,1.0145013,-30.669891,-17.593448)">
      <g
         id="g13"
         transform="matrix(-1.1312899,0.65315052,-0.65315052,-1.1312899,116.07388,68.595941)">
        <path
           id="path9"
           style="fill:#000000;stroke-width:0.949082;stroke-linejoin:round"
           d="m 40.248047,31.603516 -0.785156,2.83789 0.339843,0.271485 v 6.080078 l -0.326172,0.474609 v 2.242188 l 0.53125,-0.775391 h 0.480469 l 0.53125,0.775391 v -2.242188 l -0.324219,-0.476562 v -6.078125 l 0.339844,-0.271485 z" />
        <g
           id="g12">
          <path
             id="path10"
             style="fill:#ffffff;stroke-width:0.949082;stroke-linejoin:round"
             d="m 39.676526,41.330066 0.571789,-0.834727 0.571788,0.834727 v 1.535897 l -0.571788,-0.834727 -0.571789,0.834727 z"
             sodipodi:nodetypes="ccccccc" />
          <path
             id="path11"
             style="fill:#b3b3b3;stroke-width:1.05833;stroke-linejoin:round"
             inkscape:transform-center-y="-0.33560966"
             transform="matrix(0.47958347,0,0,1,20.945888,0)"
             d="m 40.248314,32.35296 1.162584,2.013655 -1.162584,0.446789 -1.162584,-0.44679 z"
             sodipodi:nodetypes="ccccc" />
          <path
             id="path12"
             style="fill:#502d16;stroke-width:1.31688;stroke-linejoin:round"
             d="m 40.001649,34.615742 h 0.493331 v 7.920083 h -0.493331 z" />
        </g>
      </g>
      <g
         id="g17"
         transform="matrix(-0.95042774,0.54872971,-0.54872971,-0.95042774,107.17351,62.130874)">
        <path
           id="path13"
           style="fill:#000000;stroke-width:0.949082;stroke-linejoin:round"
           d="m 40.248047,31.603516 -0.785156,2.83789 0.339843,0.271485 v 6.080078 l -0.326172,0.474609 v 2.242188 l 0.53125,-0.775391 h 0.480469 l 0.53125,0.775391 v -2.242188 l -0.324219,-0.476562 v -6.078125 l 0.339844,-0.271485 z" />
        <g
           id="g16">
          <path
             id="path14"
             style="fill:#ffffff;stroke-width:0.949082;stroke-linejoin:round"
             d="m 39.676526,41.330066 0.571789,-0.834727 0.571788,0.834727 v 1.535897 l -0.571788,-0.834727 -0.571789,0.834727 z"
             sodipodi:nodetypes="ccccccc" />
          <path
             id="path15"
             style="fill:#b3b3b3;stroke-width:1.05833;stroke-linejoin:round"
             inkscape:transform-center-y="-0.33560966"
             transform="matrix(0.47958347,0,0,1,20.945888,0)"
             d="m 40.248314,32.35296 1.162584,2.013655 -1.162584,0.446789 -1.162584,-0.44679 z"
             sodipodi:nodetypes="ccccc" />
          <path
             id="path16"
             style="fill:#502d16;stroke-width:1.31688;stroke-linejoin:round"
             d="m 40.001649,34.615742 h 0.493331 v 7.920083 h -0.493331 z" />
        </g>
      </g>
      <g
         id="g21"
         transform="matrix(-0.62253454,0.35942048,-0.35942048,-0.62253454,78.82207,56.357334)">
        <path
           id="path17"
           style="fill:#000000;stroke-width:0.949082;stroke-linejoin:round"
           d="m 40.248047,31.603516 -0.785156,2.83789 0.339843,0.271485 v 6.080078 l -0.326172,0.474609 v 2.242188 l 0.53125,-0.775391 h 0.480469 l 0.53125,0.775391 v -2.242188 l -0.324219,-0.476562 v -6.078125 l 0.339844,-0.271485 z" />
        <g
           id="g20">
          <path
             id="path18"
             style="fill:#ffffff;stroke-width:0.949082;stroke-linejoin:round"
             d="m 39.676526,41.330066 0.571789,-0.834727 0.571788,0.834727 v 1.535897 l -0.571788,-0.834727 -0.571789,0.834727 z"
             sodipodi:nodetypes="ccccccc" />
          <path
             id="path19"
             style="fill:#b3b3b3;stroke-width:1.05833;stroke-linejoin:round"
             inkscape:transform-center-y="-0.33560966"
             transform="matrix(0.47958347,0,0,1,20.945888,0)"
             d="m 40.248314,32.35296 1.162584,2.013655 -1.162584,0.446789 -1.162584,-0.44679 z"
             sodipodi:nodetypes="ccccc" />
          <path
             id="path20"
             style="fill:#502d16;stroke-width:1.31688;stroke-linejoin:round"
             d="m 40.001649,34.615742 h 0.493331 v 7.920083 h -0.493331 z" />
        </g>
      </g>
      <g
         id="g26"
         transform="rotate(150,37.458589,44.470833)">
        <path
           id="path22"
           style="fill:#000000;stroke-width:0.949082;stroke-linejoin:round"
           d="m 40.248047,31.603516 -0.785156,2.83789 0.339843,0.271485 v 6.080078 l -0.326172,0.474609 v 2.242188 l 0.53125,-0.775391 h 0.480469 l 0.53125,0.775391 v -2.242188 l -0.324219,-0.476562 v -6.078125 l 0.339844,-0.271485 z" />
        <g
           id="g25">
          <path
             id="path23"
             style="fill:#ffffff;stroke-width:0.949082;stroke-linejoin:round"
             d="m 39.676526,41.330066 0.571789,-0.834727 0.571788,0.834727 v 1.535897 l -0.571788,-0.834727 -0.571789,0.834727 z"
             sodipodi:nodetypes="ccccccc" />
          <path
             id="path24"
             style="fill:#b3b3b3;stroke-width:1.05833;stroke-linejoin:round"
             inkscape:transform-center-y="-0.33560966"
             transform="matrix(0.47958347,0,0,1,20.945888,0)"
             d="m 40.248314,32.35296 1.162584,2.013655 -1.162584,0.446789 -1.162584,-0.44679 z"
             sodipodi:nodetypes="ccccc" />
          <path
             id="path25"
             style="fill:#502d16;stroke-width:1.31688;stroke-linejoin:round"
             d="m 40.001649,34.615742 h 0.493331 v 7.920083 h -0.493331 z" />
        </g>
      </g>
    </g>
  </g>
</svg>
