<?xml version="1.0" encoding="UTF-8" standalone="no"?>
<!-- Created with Inkscape (http://www.inkscape.org/) -->

<svg
   width="1280"
   height="720"
   viewBox="0 0 338.66667 190.5"
   version="1.1"
   id="svg1"
   inkscape:version="1.3 (0e150ed6c4, 2023-07-21)"
   xml:space="preserve"
   sodipodi:docname="Icons.svg"
   xmlns:inkscape="http://www.inkscape.org/namespaces/inkscape"
   xmlns:sodipodi="http://sodipodi.sourceforge.net/DTD/sodipodi-0.dtd"
   xmlns="http://www.w3.org/2000/svg"
   xmlns:svg="http://www.w3.org/2000/svg"><sodipodi:namedview
     id="namedview1"
     pagecolor="#595959"
     bordercolor="#000000"
     borderopacity="0"
     inkscape:showpageshadow="0"
     inkscape:pageopacity="0"
     inkscape:pagecheckerboard="false"
     inkscape:deskcolor="#666666"
     inkscape:document-units="px"
     borderlayer="true"
     showborder="true"
     inkscape:zoom="0.88828125"
     inkscape:cx="203.76429"
     inkscape:cy="289.32278"
     inkscape:window-width="1920"
     inkscape:window-height="1010"
     inkscape:window-x="1913"
     inkscape:window-y="-6"
     inkscape:window-maximized="1"
     inkscape:current-layer="layer1" /><defs
     id="defs1"><inkscape:path-effect
       effect="offset"
       id="path-effect55"
       is_visible="true"
       lpeversion="1.2"
       linejoin_type="round"
       unit="mm"
       offset="1"
       miter_limit="4"
       attempt_force_join="true"
       update_on_knot_move="true" /><inkscape:path-effect
       effect="offset"
       id="path-effect53"
       is_visible="true"
       lpeversion="1.2"
       linejoin_type="round"
       unit="mm"
       offset="1"
       miter_limit="4"
       attempt_force_join="true"
       update_on_knot_move="true" /><inkscape:path-effect
       effect="offset"
       id="path-effect51"
       is_visible="true"
       lpeversion="1.2"
       linejoin_type="round"
       unit="mm"
       offset="1"
       miter_limit="4"
       attempt_force_join="true"
       update_on_knot_move="true" /><inkscape:path-effect
       effect="offset"
       id="path-effect48"
       is_visible="true"
       lpeversion="1.2"
       linejoin_type="round"
       unit="mm"
       offset="1"
       miter_limit="4"
       attempt_force_join="true"
       update_on_knot_move="true" /><inkscape:path-effect
       effect="offset"
       id="path-effect45"
       is_visible="true"
       lpeversion="1.2"
       linejoin_type="miter"
       unit="mm"
       offset="2.0717589"
       miter_limit="4"
       attempt_force_join="false"
       update_on_knot_move="true" /><inkscape:path-effect
       effect="offset"
       id="path-effect41"
       is_visible="true"
       lpeversion="1.2"
       linejoin_type="miter"
       unit="mm"
       offset="2.1517453"
       miter_limit="4"
       attempt_force_join="false"
       update_on_knot_move="true" /><inkscape:path-effect
       effect="offset"
       id="path-effect23"
       is_visible="true"
       lpeversion="1.2"
       linejoin_type="miter"
       unit="mm"
       offset="1.0583631"
       miter_limit="4"
       attempt_force_join="false"
       update_on_knot_move="true" /><inkscape:path-effect
       effect="offset"
       id="path-effect18"
       is_visible="true"
       lpeversion="1.2"
       linejoin_type="miter"
       unit="mm"
       offset="1.0547857"
       miter_limit="4"
       attempt_force_join="false"
       update_on_knot_move="true" /></defs><g
     inkscape:label="Layer 1"
     inkscape:groupmode="layer"
     id="layer1"><g
       id="g24"
       transform="matrix(0.98662268,0,0,0.98968261,-65.843283,-30.630438)"
       inkscape:export-filename="Food.png"
       inkscape:export-xdpi="23.991148"
       inkscape:export-ydpi="23.991148"><path
         id="path21"
         style="fill:#000000;fill-opacity:1;stroke:none;stroke-width:0.264583;stroke-linejoin:round;stroke-opacity:1"
         d="m 40.673828,50.441406 c -0.942523,-0.02914 -1.907536,0.06597 -2.935547,0.38086 -0.232843,0.07132 -0.473971,0.169395 -0.710937,0.28125 -0.423581,0.199942 -0.87274,0.461697 -1.3125,0.74414 0,0 -1.273967,0.708953 -3.564453,2.716797 l -0.800782,0.701172 3.25,2.167969 c -0.02031,0.115277 -0.02544,0.251265 -0.0098,0.404297 -1.401545,0.861931 -3.573436,2.425524 -5.445313,4.802734 -2.781713,3.532665 -6.199057,26.17546 -5.808594,30.994141 0.04559,0.562665 0.143541,1.414954 0.91211,1.583984 1.283476,0.282274 16.634093,0.02922 25.179687,-0.363281 1.427506,-0.06557 2.672608,-0.136761 3.63086,-0.210938 0.478229,-0.03702 0.897473,-0.07529 1.230468,-0.115234 0.326253,-0.03913 0.628085,-0.08699 0.816407,-0.140625 0.872704,-0.248561 1.193308,-1.061907 1.273437,-1.833985 0.02604,-0.251015 0.02942,-0.514774 0.01953,-0.783203 -0.07613,-2.066484 -1.060168,-5.302079 -1.748046,-8.009765 -0.171112,-0.673543 -0.321464,-1.310798 -0.439454,-1.892578 -0.117804,-0.580868 -0.198092,-1.088727 -0.228515,-1.50586 -0.06551,-0.898187 -0.07398,-1.716118 -0.05859,-2.486328 0.01558,-0.779526 0.0555,-1.497505 0.08789,-2.212891 0.04879,-1.077453 0.07916,-2.146427 -0.0293,-3.291015 -0.0362,-0.382032 -0.08597,-0.772849 -0.158203,-1.177735 -0.548382,-3.07412 -1.427894,-6.676488 -3.267578,-9.265625 -1.04996,-1.477692 -2.545828,-3.004969 -3.605469,-4.019531 0.195246,-0.405232 0.18695,-0.855954 -0.04297,-1.28125 l 2.896484,-3.08789 -0.947265,-0.5 c -2.4159,-1.272503 -3.517578,-1.628907 -3.517578,-1.628907 -0.428845,-0.169468 -0.863366,-0.326463 -1.263672,-0.445312 -0.223536,-0.06637 -0.443428,-0.1225 -0.652344,-0.164063 -0.907881,-0.180618 -1.820978,-0.332607 -2.75,-0.361328 z"
         inkscape:path-effect="#path-effect23"
         inkscape:original-d="m 40.648165,51.257337 c -0.865996,-0.02677 -1.74139,0.06195 -2.671155,0.346749 -1.85953,0.569596 -5.287016,3.574458 -5.287016,3.574458 l 3.161565,2.107882 -0.294556,0.01447 c -0.08898,0.156863 -0.253023,0.217174 -0.111621,0.670244 l 0.562756,-0.0098 c -1.02622,0.544518 -3.885998,2.218128 -6.222359,5.185214 -2.871444,3.646619 -6.788178,30.96131 -5.36143,31.275093 1.070062,0.235338 16.425149,0.01044 24.966952,-0.381889 1.423633,-0.06539 2.658013,-0.135431 3.605464,-0.208772 0.473726,-0.03667 0.875674,-0.07399 1.193726,-0.112138 0.318052,-0.03815 0.552438,-0.07698 0.690397,-0.116272 0.413876,-0.117879 0.621727,-0.524299 0.684713,-1.131197 0.02099,-0.2023 0.02603,-0.426612 0.01705,-0.670244 -0.0718,-1.949051 -1.030915,-5.117012 -1.722375,-7.838798 -0.172865,-0.680446 -0.32868,-1.332958 -0.450102,-1.931665 -0.121422,-0.598707 -0.208452,-1.143734 -0.242363,-1.608687 -0.06782,-0.929906 -0.07673,-1.772342 -0.06098,-2.560567 0.01575,-0.788226 0.05609,-1.522152 0.08837,-2.235006 0.04842,-1.069281 0.07811,-2.090879 -0.02481,-3.177067 -0.03431,-0.362063 -0.08353,-0.731558 -0.151412,-1.112077 C 52.47594,68.2931 51.628353,64.846249 49.891529,62.401876 48.59125,60.57189 46.568422,58.645404 45.632874,57.791822 l 0.423747,-0.0072 c 0.289336,-0.302471 0.322204,-0.632501 -0.03721,-1.005107 l -0.38809,0.01912 2.845305,-3.034957 c 0,0 -3.426085,-1.804141 -5.212602,-2.159558 -0.893259,-0.177709 -1.749865,-0.319977 -2.615861,-0.346749 z"
         transform="matrix(1.3096027,0,0,1.313989,38.45302,-34.243256)" /><g
         id="g20"
         transform="matrix(1.3096027,0,0,1.313989,31.041536,-26.611257)"><path
           style="opacity:1;fill:#c4ab8d;fill-opacity:1;stroke:none;stroke-width:0.264583;stroke-linejoin:round;stroke-opacity:1"
           d="m 38.349457,49.370273 3.797712,2.531809 c 0,0 -3.830398,1.789318 -6.701845,5.435941 -2.871447,3.646623 -6.788227,30.961503 -5.361477,31.275287 1.42675,0.313784 28.24883,-0.190428 30.456171,-0.819116 2.207341,-0.628688 -1.441405,-9.460669 -1.712695,-13.180298 -0.27129,-3.719629 0.394118,-6.040574 -0.148929,-9.084725 -0.543047,-3.044151 -1.390705,-6.491422 -3.127531,-8.935797 -1.736826,-2.444375 -4.765757,-5.063617 -4.765757,-5.063617 l 3.350924,-3.574319 c 0,0 -3.426029,-1.804067 -5.212548,-2.159485 -1.786519,-0.355418 -3.427481,-0.569597 -5.287013,0 -1.859532,0.569597 -5.287012,3.57432 -5.287012,3.57432 z"
           id="path18"
           sodipodi:nodetypes="cczzzzzzcczzc" /><path
           style="opacity:1;fill:#8c6e48;fill-opacity:1;stroke:none;stroke-width:0.264583;stroke-linejoin:round;stroke-opacity:1"
           d="m 41.216357,51.492522 10.462329,-0.521253 c 0.359412,0.372606 0.326567,0.702806 0.03723,1.005277 l -10.611257,0.186163 c -0.141403,-0.45307 0.02272,-0.513324 0.111698,-0.670187 z"
           id="path19"
           sodipodi:nodetypes="ccccc" /><path
           style="opacity:1;fill:#b18f69;fill-opacity:1;stroke:none;stroke-width:0.264583;stroke-linejoin:round;stroke-opacity:1"
           d="m 30.083847,88.61331 c 1.42675,0.313784 28.24883,-0.190428 30.456171,-0.819116 2.207341,-0.628688 -1.441405,-9.460669 -1.712695,-13.180298 -0.27129,-3.719629 0.394118,-6.040574 -0.148929,-9.084725 -7.162077,25.064692 -16.524523,19.96698 -28.594547,23.084139 z"
           id="path20"
           sodipodi:nodetypes="czzcc" /></g><g
         id="g21"
         transform="matrix(0.71066463,0,0,0.71304488,31.778302,21.664275)"><path
           id="path13"
           style="fill:#000000;fill-opacity:1;stroke:none;stroke-width:0.264583;stroke-linejoin:round;stroke-opacity:1"
           d="m 134.12695,54.873047 c -0.11255,3.96e-4 -0.47766,0.01011 -0.90429,0.06445 -2.10897,0.04055 -4.243,0.225003 -6.35352,0.462891 l -0.20703,0.02344 -0.19336,0.07813 c -1.29447,0.529457 -2.48229,1.074108 -3.62305,1.625 l -0.0391,-0.01953 -1.10156,0.576172 c -0.40301,0.204095 -0.80229,0.410139 -1.19336,0.61914 l -2.06445,1.060547 0.0684,0.07617 c -2.77647,1.621733 -5.17065,3.291862 -7.4043,4.966797 l -0.0195,0.0039 -2.41016,1.833985 0.004,0.0059 c -1.50197,1.151394 -2.99098,2.294807 -4.5625,3.421875 l -0.0879,0.0625 -15.642582,15.039062 -0.105469,0.179688 c -1.43434,2.455362 -2.863244,5.032061 -3.771484,7.832031 -1.406544,2.39747 -2.140227,3.363467 -2.007813,4.72461 0.110507,1.135932 0.761459,2.054199 1.517579,5.294924 l 0.09766,0.41797 3.800781,3.80078 6.894531,2.69336 0.13086,0.0254 c 4.275827,0.84331 8.127981,1.23529 10.683591,0.0352 l 0.1875,-0.0879 0.15625,-0.13476 C 119.38333,97.966273 132.57748,87.220799 148.58203,68.4375 l 0.39453,-0.462891 -0.36719,-5.677734 -0.27734,-0.361328 c -1.72422,-2.250076 -3.73973,-4.463543 -6.67383,-6 l -0.14062,-0.07422 -0.15235,-0.04297 c -0.90743,-0.252558 -1.81774,-0.423505 -2.71289,-0.558593 -1.07466,-0.3336 -3.44347,-0.390453 -4.52539,-0.386719 z"
           inkscape:path-effect="#path-effect18"
           inkscape:original-d="m 134.13187,56.37382 c -0.39744,0.0014 -0.64319,0.01621 -0.6072,0.04548 0.002,0.0027 0.003,0.0055 0.005,0.0083 -2.13572,0.02725 -4.30774,0.217325 -6.49211,0.463537 -1.5117,0.618308 -2.89961,1.255398 -4.2075,1.904277 l -0.007,-0.0036 -0.42272,0.219624 c -0.40173,0.203321 -0.79673,0.407586 -1.18184,0.6134 l -0.34468,0.1788 c 0.001,0.0011 0.004,0.0036 0.005,0.0047 -3.56112,1.933156 -6.44536,3.968133 -9.17515,6.025989 -0.002,3.08e-4 -0.005,2.04e-4 -0.007,5.17e-4 l -1.11932,0.850077 0.002,0.0036 c -1.83766,1.40429 -3.64588,2.812976 -5.58312,4.202328 L 89.581096,85.708981 c -1.458608,2.496905 -2.854031,5.015708 -3.704684,7.724076 -3.24e-4,-5.48e-4 -7.09e-4,-0.001 -0.001,-0.0016 -2.942083,5.036382 -1.928355,2.437606 -0.38964,9.032523 l 3.276285,3.27629 6.478675,2.53162 c 4.204467,0.82924 7.727618,1.10088 9.754958,0.14883 13.43054,-11.60896 26.5311,-22.278786 42.44495,-40.955637 l -0.29765,-4.616773 c -1.66737,-2.175885 -3.52944,-4.196156 -6.18102,-5.584672 -0.88121,-0.24526 -1.77883,-0.414807 -2.68511,-0.547253 -0.007,-0.0058 -0.0125,-0.01174 -0.0191,-0.01757 -0.37972,-0.212426 -2.93355,-0.32916 -4.12584,-0.325045 z" /><g
           id="g13"
           transform="translate(1.0425095,9.3825858)"><path
             style="opacity:1;fill:#d38d5f;fill-opacity:1;stroke:none;stroke-width:0.264583;stroke-linejoin:round;stroke-opacity:1"
             d="M 84.44327,93.081207 C 82.904554,86.48628 85.596757,81.362976 88.538843,76.326589 L 103.95309,61.508062 c 6.65209,-4.77074 11.72248,-9.778733 22.04163,-13.999413 4.78919,-0.539815 9.52769,-0.851539 13.92495,0.372324 2.65158,1.388517 4.51322,3.408985 6.18059,5.584873 l 0.29786,4.616828 c -15.91387,18.67687 -29.01448,29.346756 -42.44503,40.955729 -2.02734,0.952055 -5.550437,0.680307 -9.754908,-0.148928 L 87.71973,96.357666 Z"
             id="path2"
             sodipodi:nodetypes="ccccccccccc" /><path
             style="opacity:1;fill:#eabc8a;fill-opacity:1;stroke:none;stroke-width:0.264583;stroke-linejoin:round;stroke-opacity:1"
             d="m 99.261799,66.776459 c -0.408048,4.569448 -0.112687,14.075401 -0.03723,12.454265 0.01552,-0.333339 2.059221,5.490371 2.196711,5.398709 1.74403,-1.78699 2.7324,-3.986161 3.38816,-6.366756 l 0.59572,-8.042214 c -1.29033,-1.373447 -2.13376,-3.153172 -4.43067,-3.611551 z"
             id="path3"
             sodipodi:nodetypes="csccccc" /><path
             style="opacity:1;fill:#eabc8a;fill-opacity:1;stroke:none;stroke-width:0.264583;stroke-linejoin:round;stroke-opacity:1"
             d="m 116.91,76.698914 c -1.78876,-3.402936 -1.9892,-7.748921 -2.75521,-11.802695 l -4.62046,-7.593747 1.11926,-0.850133 c 1.29072,-0.168473 2.6945,0.293555 3.98522,1.295243 4.3022,3.018625 5.47564,6.558711 6.25506,10.164466 -0.35861,2.382879 -0.40181,4.765758 -1.78716,7.148637 -0.51611,1.158726 -1.49275,1.32484 -2.19671,1.638229 z"
             id="path4"
             sodipodi:nodetypes="cccccccc" /><path
             style="opacity:1;fill:#eabc8a;fill-opacity:1;stroke:none;stroke-width:0.264583;stroke-linejoin:round;stroke-opacity:1"
             d="m 119.83082,50.420829 c 0.85635,0.670184 3.92995,3.715201 3.92995,3.715201 l 3.12753,13.180298 1.07974,1.600996 2.53181,-5.584872 -1.07974,-8.116681 c -1.02912,-2.028405 -2.54537,-3.407313 -4.4679,-4.244502 l -3.17216,-1.562206 z"
             id="path5"
             sodipodi:nodetypes="ccccccccc" /><path
             style="opacity:1;fill:#eabc8a;fill-opacity:1;stroke:none;stroke-width:0.264583;stroke-linejoin:round;stroke-opacity:1"
             d="m 132.48193,47.03651 c -0.14396,-0.117076 4.22688,-0.0033 4.73318,0.279935 1.13496,1.005277 1.6288,2.128292 2.18331,3.133569 0.14675,3.033943 0.161,5.961893 -0.18617,8.600704 l -1.60099,1.079741 C 136.13649,55.90799 135.22297,51.71122 132.48193,47.03651 Z"
             id="path6"
             sodipodi:nodetypes="cccccc" /><path
             style="opacity:1;fill:#8d5026;fill-opacity:1;stroke:none;stroke-width:0.264583;stroke-linejoin:round;stroke-opacity:1"
             d="M 84.44327,93.081207 C 82.904554,86.48628 81.890761,89.085076 84.832847,84.048689 100.83726,111.15748 135.47799,66.872474 146.39812,58.082674 130.48425,76.759544 117.38364,87.42943 103.95309,99.038403 101.92575,99.990458 98.402653,99.71871 94.198182,98.889475 L 87.71973,96.357666 Z"
             id="path7"
             sodipodi:nodetypes="ccccccc" /></g></g></g><g
       id="g56"
       transform="translate(-71.39975)"
       inkscape:export-filename="SimpleMaterials.png"
       inkscape:export-xdpi="18.412693"
       inkscape:export-ydpi="18.412693"><g
         id="g46"
         transform="matrix(0.79624784,0,0,1,-35.160048,-33.775965)"><path
           id="path33"
           style="fill:#000000;fill-opacity:1;stroke:none;stroke-width:0.264583;stroke-linejoin:round;stroke-opacity:1"
           d="m 211.00977,103.77148 -73.85743,19.79102 v 9.01562 l 16.54493,10.84766 3.10351,-0.88281 14.2832,10.57422 75.68946,-16.96485 0.47851,-8.42578 -4.97656,-3.26172 0.50977,-6.42773 -16.44336,-11.31836 -7.74805,1.42969 z"
           inkscape:path-effect="#path-effect41"
           inkscape:original-d="m 210.67035,106.3594 -71.10522,19.05258 v 5.86321 l 14.53244,9.53017 3.59048,-1.02216 -0.0227,0.39894 13.96763,10.34046 72.83534,-16.32459 0.29663,-5.21673 -6.44819,-4.22869 1.54048,-0.30902 0.41341,-5.20899 -14.47457,-9.9627 -7.6383,1.41025 z" /><g
           id="g33"><g
             id="g26"><path
               style="opacity:1;fill:#79573f;fill-opacity:1;stroke:none;stroke-width:0.264583;stroke-linejoin:round;stroke-opacity:1"
               d="m 154.09776,134.38171 71.79039,-19.23618 -15.2177,-8.78595 -71.10527,19.05261 z"
               id="path24"
               sodipodi:nodetypes="ccccc" /><path
               style="opacity:1;fill:#624733;fill-opacity:1;stroke:none;stroke-width:0.264583;stroke-linejoin:round;stroke-opacity:1"
               d="m 154.09776,134.38171 v 6.42387 l -14.53258,-9.5305 v -5.86289 z"
               id="path25" /><path
               style="opacity:1;fill:#6c4f38;fill-opacity:1;stroke:none;stroke-width:0.264583;stroke-linejoin:round;stroke-opacity:1"
               d="m 154.09776,140.80558 71.79039,-20.43493 v -5.22512 l -71.79039,19.23618 z"
               id="path26"
               sodipodi:nodetypes="ccccc" /></g><g
             id="g32"
             transform="rotate(3.2558823,-8.081875,454.16117)"><path
               style="opacity:1;fill:#79573f;fill-opacity:1;stroke:none;stroke-width:0.264583;stroke-linejoin:round;stroke-opacity:1"
               d="m 154.09776,134.38171 71.79039,-19.23618 -15.2177,-8.78595 -71.10527,19.05261 z"
               id="path30"
               sodipodi:nodetypes="ccccc" /><path
               style="opacity:1;fill:#624733;fill-opacity:1;stroke:none;stroke-width:0.264583;stroke-linejoin:round;stroke-opacity:1"
               d="m 154.09776,134.38171 v 6.42387 l -14.53258,-9.5305 v -5.86289 z"
               id="path31" /><path
               style="opacity:1;fill:#6c4f38;fill-opacity:1;stroke:none;stroke-width:0.264583;stroke-linejoin:round;stroke-opacity:1"
               d="m 154.09776,140.80558 71.79039,-20.43493 v -5.22512 l -71.79039,19.23618 z"
               id="path32"
               sodipodi:nodetypes="ccccc" /></g><path
             style="fill:#835e44;fill-opacity:1;stroke:none;stroke-width:0.264583;stroke-linejoin:round;stroke-opacity:1"
             d="m 167.18302,132.72953 73.08748,-13.49481 -14.47471,-9.96263 -72.38999,13.36603 z"
             id="path27"
             sodipodi:nodetypes="ccccc" /><path
             style="fill:#6a4c36;fill-opacity:1;stroke:none;stroke-width:0.264583;stroke-linejoin:round;stroke-opacity:1"
             d="m 167.18302,132.72953 -0.50835,6.40372 -13.73282,-10.65063 0.46395,-5.8445 z"
             id="path28" /><path
             style="fill:#76563d;fill-opacity:1;stroke:none;stroke-width:0.264583;stroke-linejoin:round;stroke-opacity:1"
             d="m 166.67467,139.13325 73.18235,-14.6898 0.41348,-5.20873 -73.08748,13.49481 z"
             id="path29"
             sodipodi:nodetypes="ccccc" /></g></g><g
         id="g45"
         transform="rotate(0.040542,-69807.717,-40080.212)"><path
           id="path44"
           style="fill:#000000;fill-opacity:1;stroke:none;stroke-width:0.264583;stroke-linejoin:round;stroke-opacity:1"
           d="m 142.57812,38.367187 c -7.06179,-3.3e-5 -14.60396,1.263953 -14.60546,5.230469 v 59.605474 c -0.001,3.96617 7.54273,5.23245 14.60546,5.23242 5.75151,2e-5 11.81842,-0.84177 13.87305,-3.29492 2.7412,0.91145 7.22222,2.10396 10.27735,1.33007 4.82007,-1.22094 5.91952,-7.083803 8.54687,-7.236325 0,0 2.9693,0.2466 7.43555,5.134765 l 3.60156,3.94336 V 46.144531 l -0.75781,-0.621094 c -6.82811,-5.605013 -11.13086,-5.535156 -11.13086,-5.535156 -4.51504,-0.0272 -7.01623,4.664731 -9.62696,4.767578 0,0 -3.27946,-0.07121 -8.98437,-3.757812 -2.59826,-2.767398 -8.02692,-2.630559 -13.23438,-2.63086 z"
           inkscape:path-effect="#path-effect45"
           inkscape:original-d="m 142.57734,40.438876 c -6.92076,-3.3e-5 -12.53139,1.414252 -12.53205,3.15898 V 103.203 c -4.8e-4,1.74493 5.61049,3.15953 12.53205,3.1595 6.92157,3e-5 12.53254,-1.41457 12.53206,-3.1595 v -0.74569 c 1.5093,0.58459 7.71464,2.86587 11.11095,2.00556 3.72793,-0.9443 5.09668,-7.074869 8.93588,-7.297741 3.58822,-0.208301 9.08472,5.808431 9.08472,5.808431 V 47.124772 c 0,0 -6.14379,-5.041573 -9.82937,-5.063773 -3.55212,-0.0214 -5.98229,4.626291 -9.53172,4.766117 -3.73328,0.147069 -10.38851,-4.208529 -10.38851,-4.208529 v 0.0021 C 152.738,40.389028 148.0035,40.439189 142.57734,40.438876 Z"
           sodipodi:nodetypes="ccccccssccssccc" /><g
           id="g43"
           transform="translate(-2.6442701)"><path
             style="opacity:1;fill:#edd0be;fill-opacity:1;stroke:none;stroke-width:0.264583;stroke-linejoin:round;stroke-opacity:1"
             d="m 157.1357,42.618425 c 0,0 6.65519,4.355502 10.38847,4.208433 3.54943,-0.139826 5.9794,-4.787158 9.53152,-4.76576 3.68559,0.0222 9.82937,5.06362 9.82937,5.06362 v 55.848722 c 0,0 -5.4965,-6.016568 -9.08472,-5.808267 -3.83921,0.222872 -5.20786,6.353257 -8.9358,7.297567 -3.85837,0.97735 -11.72884,-2.23922 -11.72884,-2.23922 z"
             id="path43"
             sodipodi:nodetypes="cssccsscc" /><ellipse
             style="opacity:1;fill:#e9c5ac;fill-opacity:1;stroke:none;stroke-width:0.264583;stroke-linejoin:round;stroke-opacity:1"
             id="ellipse41"
             cx="145.2216"
             cy="103.20317"
             rx="12.531815"
             ry="3.159281" /><path
             style="opacity:1;fill:#e9c5ac;fill-opacity:1;stroke:none;stroke-width:0.264583;stroke-linejoin:round;stroke-opacity:1"
             d="m 132.68979,43.598076 v 59.605094 h 25.06363 V 43.598076 Z"
             id="path42" /><ellipse
             style="opacity:1;fill:#f3dccd;fill-opacity:1;stroke:none;stroke-width:0.264583;stroke-linejoin:round;stroke-opacity:1"
             id="path41"
             cx="145.2216"
             cy="43.598076"
             rx="12.531815"
             ry="3.159281" /></g></g><g
         id="g55"
         transform="matrix(1.1588399,0,0,1.1588399,-8.8766081,-28.281956)"><g
           id="g54"
           transform="matrix(0.45131569,-1.3340127,1.3340127,0.45131569,-120.71031,128.97924)"><path
             style="opacity:1;fill:#000000;fill-opacity:1;stroke:none;stroke-width:0.264583;stroke-linejoin:round;stroke-opacity:1"
             d="m 42.167969,129.47852 a 0.61275239,0.61275239 0 0 0 -0.146485,0.0312 l -4.541015,1.56445 a 0.61275239,0.61275239 0 0 0 -0.113282,1.10742 l 1.455079,0.86133 3.943359,10.36914 a 0.61275239,0.61275239 0 0 0 1.179687,-0.30274 l -1.617187,-11.39843 0.474609,-1.42774 a 0.61275239,0.61275239 0 0 0 -0.634765,-0.80468 z"
             id="path53"
             inkscape:path-effect="#path-effect55"
             inkscape:original-d="m 37.679272,131.65406 4.542364,-1.56377 -0.521255,1.56377 1.638228,11.54207 -4.021108,-10.57403 z" /><path
             style="opacity:1;fill:#b3b3b3;fill-opacity:1;stroke:none;stroke-width:0.264583;stroke-linejoin:round;stroke-opacity:1"
             d="m 37.679272,131.65406 4.542364,-1.56377 -0.521255,1.56377 1.638228,11.54207 -4.021108,-10.57403 z"
             id="path54" /></g><g
           id="g48"
           transform="matrix(1.4082883,0,0,1.4082883,19.874159,-59.470785)"><path
             style="opacity:1;fill:#000000;fill-opacity:1;stroke:none;stroke-width:0.264583;stroke-linejoin:round;stroke-opacity:1"
             d="m 42.167969,129.47852 a 0.61275236,0.61275236 0 0 0 -0.146485,0.0312 l -4.541015,1.56445 a 0.61275236,0.61275236 0 0 0 -0.113282,1.10742 l 1.455079,0.86133 3.943359,10.36914 a 0.61275236,0.61275236 0 0 0 1.179687,-0.30274 l -1.617187,-11.39843 0.474609,-1.42774 a 0.61275236,0.61275236 0 0 0 -0.634765,-0.80468 z"
             id="path48"
             inkscape:path-effect="#path-effect48"
             inkscape:original-d="m 37.679272,131.65406 4.542364,-1.56377 -0.521255,1.56377 1.638228,11.54207 -4.021108,-10.57403 z" /><path
             style="opacity:1;fill:#b3b3b3;fill-opacity:1;stroke:none;stroke-width:0.264583;stroke-linejoin:round;stroke-opacity:1"
             d="m 37.679272,131.65406 4.542364,-1.56377 -0.521255,1.56377 1.638228,11.54207 -4.021108,-10.57403 z"
             id="path47" /></g><g
           id="g50"
           transform="matrix(1.2158268,0.7106624,-0.7106624,1.2158268,127.45863,-59.726277)"><path
             style="opacity:1;fill:#000000;fill-opacity:1;stroke:none;stroke-width:0.264583;stroke-linejoin:round;stroke-opacity:1"
             d="m 42.167969,129.47852 a 0.61275237,0.61275237 0 0 0 -0.146485,0.0312 l -4.541015,1.56445 a 0.61275237,0.61275237 0 0 0 -0.113282,1.10742 l 1.455079,0.86133 3.943359,10.36914 a 0.61275237,0.61275237 0 0 0 1.179687,-0.30274 l -1.617187,-11.39843 0.474609,-1.42774 a 0.61275237,0.61275237 0 0 0 -0.634765,-0.80468 z"
             id="path49"
             inkscape:path-effect="#path-effect51"
             inkscape:original-d="m 37.679272,131.65406 4.542364,-1.56377 -0.521255,1.56377 1.638228,11.54207 -4.021108,-10.57403 z" /><path
             style="opacity:1;fill:#b3b3b3;fill-opacity:1;stroke:none;stroke-width:0.264583;stroke-linejoin:round;stroke-opacity:1"
             d="m 37.679272,131.65406 4.542364,-1.56377 -0.521255,1.56377 1.638228,11.54207 -4.021108,-10.57403 z"
             id="path50" /></g><g
           id="g52"
           transform="matrix(1.1143255,-0.86113561,0.86113561,1.1143255,-80.722036,22.756191)"><path
             style="opacity:1;fill:#000000;fill-opacity:1;stroke:none;stroke-width:0.264583;stroke-linejoin:round;stroke-opacity:1"
             d="m 42.167969,129.47852 a 0.61275237,0.61275237 0 0 0 -0.146485,0.0312 l -4.541015,1.56445 a 0.61275237,0.61275237 0 0 0 -0.113282,1.10742 l 1.455079,0.86133 3.943359,10.36914 a 0.61275237,0.61275237 0 0 0 1.179687,-0.30274 l -1.617187,-11.39843 0.474609,-1.42774 a 0.61275237,0.61275237 0 0 0 -0.634765,-0.80468 z"
             id="path51"
             inkscape:path-effect="#path-effect53"
             inkscape:original-d="m 37.679272,131.65406 4.542364,-1.56377 -0.521255,1.56377 1.638228,11.54207 -4.021108,-10.57403 z" /><path
             style="opacity:1;fill:#b3b3b3;fill-opacity:1;stroke:none;stroke-width:0.264583;stroke-linejoin:round;stroke-opacity:1"
             d="m 37.679272,131.65406 4.542364,-1.56377 -0.521255,1.56377 1.638228,11.54207 -4.021108,-10.57403 z"
             id="path52" /></g></g></g></g></svg>
