<?xml version="1.0" encoding="UTF-8" standalone="no"?>
<!-- Created with Inkscape (http://www.inkscape.org/) -->

<svg
   width="1280"
   height="720"
   viewBox="0 0 338.66667 190.5"
   version="1.1"
   id="svg1"
   inkscape:version="1.3 (0e150ed6c4, 2023-07-21)"
   xml:space="preserve"
   sodipodi:docname="Icons.svg"
   xmlns:inkscape="http://www.inkscape.org/namespaces/inkscape"
   xmlns:sodipodi="http://sodipodi.sourceforge.net/DTD/sodipodi-0.dtd"
   xmlns="http://www.w3.org/2000/svg"
   xmlns:svg="http://www.w3.org/2000/svg"><sodipodi:namedview
     id="namedview1"
     pagecolor="#595959"
     bordercolor="#000000"
     borderopacity="0"
     inkscape:showpageshadow="0"
     inkscape:pageopacity="0"
     inkscape:pagecheckerboard="false"
     inkscape:deskcolor="#666666"
     inkscape:document-units="px"
     borderlayer="true"
     showborder="true"
     inkscape:zoom="5.0248775"
     inkscape:cx="59.205423"
     inkscape:cy="143.08807"
     inkscape:window-width="1920"
     inkscape:window-height="1010"
     inkscape:window-x="1913"
     inkscape:window-y="-6"
     inkscape:window-maximized="1"
     inkscape:current-layer="layer1"
     showgrid="false" /><defs
     id="defs1"><inkscape:path-effect
       effect="offset"
       id="path-effect79"
       is_visible="true"
       lpeversion="1.2"
       linejoin_type="miter"
       unit="mm"
       offset="0.2"
       miter_limit="4"
       attempt_force_join="false"
       update_on_knot_move="true" /><inkscape:path-effect
       effect="offset"
       id="path-effect74"
       is_visible="true"
       lpeversion="1.2"
       linejoin_type="miter"
       unit="mm"
       offset="0.2"
       miter_limit="4"
       attempt_force_join="false"
       update_on_knot_move="true" /><inkscape:path-effect
       effect="offset"
       id="path-effect69"
       is_visible="true"
       lpeversion="1.2"
       linejoin_type="miter"
       unit="mm"
       offset="0.2"
       miter_limit="4"
       attempt_force_join="false"
       update_on_knot_move="true" /><inkscape:path-effect
       effect="offset"
       id="path-effect67"
       is_visible="true"
       lpeversion="1.2"
       linejoin_type="miter"
       unit="mm"
       offset="0.15"
       miter_limit="4"
       attempt_force_join="false"
       update_on_knot_move="true" /><inkscape:path-effect
       effect="offset"
       id="path-effect34"
       is_visible="true"
       lpeversion="1.2"
       linejoin_type="miter"
       unit="mm"
       offset="0.35249972"
       miter_limit="4"
       attempt_force_join="false"
       update_on_knot_move="true" /><inkscape:path-effect
       effect="offset"
       id="path-effect24"
       is_visible="true"
       lpeversion="1.2"
       linejoin_type="miter"
       unit="mm"
       offset="0.22995935"
       miter_limit="4"
       attempt_force_join="false"
       update_on_knot_move="true" /><inkscape:path-effect
       effect="offset"
       id="path-effect22"
       is_visible="true"
       lpeversion="1.2"
       linejoin_type="miter"
       unit="mm"
       offset="0.29433135"
       miter_limit="4"
       attempt_force_join="false"
       update_on_knot_move="true" /><inkscape:path-effect
       effect="offset"
       id="path-effect17"
       is_visible="true"
       lpeversion="1.2"
       linejoin_type="miter"
       unit="mm"
       offset="0.23608893"
       miter_limit="4"
       attempt_force_join="false"
       update_on_knot_move="true" /><inkscape:path-effect
       effect="offset"
       id="path-effect55"
       is_visible="true"
       lpeversion="1.2"
       linejoin_type="round"
       unit="mm"
       offset="1"
       miter_limit="4"
       attempt_force_join="true"
       update_on_knot_move="true" /><inkscape:path-effect
       effect="offset"
       id="path-effect53"
       is_visible="true"
       lpeversion="1.2"
       linejoin_type="round"
       unit="mm"
       offset="1"
       miter_limit="4"
       attempt_force_join="true"
       update_on_knot_move="true" /><inkscape:path-effect
       effect="offset"
       id="path-effect51"
       is_visible="true"
       lpeversion="1.2"
       linejoin_type="round"
       unit="mm"
       offset="1"
       miter_limit="4"
       attempt_force_join="true"
       update_on_knot_move="true" /><inkscape:path-effect
       effect="offset"
       id="path-effect48"
       is_visible="true"
       lpeversion="1.2"
       linejoin_type="round"
       unit="mm"
       offset="1"
       miter_limit="4"
       attempt_force_join="true"
       update_on_knot_move="true" /><inkscape:path-effect
       effect="offset"
       id="path-effect45"
       is_visible="true"
       lpeversion="1.2"
       linejoin_type="miter"
       unit="mm"
       offset="2.0717589"
       miter_limit="4"
       attempt_force_join="false"
       update_on_knot_move="true" /><inkscape:path-effect
       effect="offset"
       id="path-effect41"
       is_visible="true"
       lpeversion="1.2"
       linejoin_type="miter"
       unit="mm"
       offset="2.1517453"
       miter_limit="4"
       attempt_force_join="false"
       update_on_knot_move="true" /><inkscape:path-effect
       effect="offset"
       id="path-effect23"
       is_visible="true"
       lpeversion="1.2"
       linejoin_type="miter"
       unit="mm"
       offset="1.0583631"
       miter_limit="4"
       attempt_force_join="false"
       update_on_knot_move="true" /><inkscape:path-effect
       effect="offset"
       id="path-effect18"
       is_visible="true"
       lpeversion="1.2"
       linejoin_type="miter"
       unit="mm"
       offset="1.0547857"
       miter_limit="4"
       attempt_force_join="false"
       update_on_knot_move="true" /></defs><g
     inkscape:label="Layer 1"
     inkscape:groupmode="layer"
     id="layer1"><g
       id="g24"
       transform="matrix(0.14955996,0,0,0.15002381,-8.1079881,-3.7364577)"
       inkscape:export-filename="Food.png"
       inkscape:export-xdpi="23.991148"
       inkscape:export-ydpi="23.991148"><path
         id="path21"
         style="fill:#000000;fill-opacity:1;stroke:none;stroke-width:0.264583;stroke-linejoin:round;stroke-opacity:1"
         d="m 40.673828,50.441406 c -0.942523,-0.02914 -1.907536,0.06597 -2.935547,0.38086 -0.232843,0.07132 -0.473971,0.169395 -0.710937,0.28125 -0.423581,0.199942 -0.87274,0.461697 -1.3125,0.74414 0,0 -1.273967,0.708953 -3.564453,2.716797 l -0.800782,0.701172 3.25,2.167969 c -0.02031,0.115277 -0.02544,0.251265 -0.0098,0.404297 -1.401545,0.861931 -3.573436,2.425524 -5.445313,4.802734 -2.781713,3.532665 -6.199057,26.17546 -5.808594,30.994141 0.04559,0.562665 0.143541,1.414954 0.91211,1.583984 1.283476,0.282274 16.634093,0.02922 25.179687,-0.363281 1.427506,-0.06557 2.672608,-0.136761 3.63086,-0.210938 0.478229,-0.03702 0.897473,-0.07529 1.230468,-0.115234 0.326253,-0.03913 0.628085,-0.08699 0.816407,-0.140625 0.872704,-0.248561 1.193308,-1.061907 1.273437,-1.833985 0.02604,-0.251015 0.02942,-0.514774 0.01953,-0.783203 -0.07613,-2.066484 -1.060168,-5.302079 -1.748046,-8.009765 -0.171112,-0.673543 -0.321464,-1.310798 -0.439454,-1.892578 -0.117804,-0.580868 -0.198092,-1.088727 -0.228515,-1.50586 -0.06551,-0.898187 -0.07398,-1.716118 -0.05859,-2.486328 0.01558,-0.779526 0.0555,-1.497505 0.08789,-2.212891 0.04879,-1.077453 0.07916,-2.146427 -0.0293,-3.291015 -0.0362,-0.382032 -0.08597,-0.772849 -0.158203,-1.177735 -0.548382,-3.07412 -1.427894,-6.676488 -3.267578,-9.265625 -1.04996,-1.477692 -2.545828,-3.004969 -3.605469,-4.019531 0.195246,-0.405232 0.18695,-0.855954 -0.04297,-1.28125 l 2.896484,-3.08789 -0.947265,-0.5 c -2.4159,-1.272503 -3.517578,-1.628907 -3.517578,-1.628907 -0.428845,-0.169468 -0.863366,-0.326463 -1.263672,-0.445312 -0.223536,-0.06637 -0.443428,-0.1225 -0.652344,-0.164063 -0.907881,-0.180618 -1.820978,-0.332607 -2.75,-0.361328 z"
         transform="matrix(1.3096027,0,0,1.313989,38.45302,-34.243256)" /><g
         id="g20"
         transform="matrix(1.3096027,0,0,1.313989,31.041536,-26.611257)"><path
           style="opacity:1;fill:#c4ab8d;fill-opacity:1;stroke:none;stroke-width:0.264583;stroke-linejoin:round;stroke-opacity:1"
           d="m 38.349457,49.370273 3.797712,2.531809 c 0,0 -3.830398,1.789318 -6.701845,5.435941 -2.871447,3.646623 -6.788227,30.961503 -5.361477,31.275287 1.42675,0.313784 28.24883,-0.190428 30.456171,-0.819116 2.207341,-0.628688 -1.441405,-9.460669 -1.712695,-13.180298 -0.27129,-3.719629 0.394118,-6.040574 -0.148929,-9.084725 -0.543047,-3.044151 -1.390705,-6.491422 -3.127531,-8.935797 -1.736826,-2.444375 -4.765757,-5.063617 -4.765757,-5.063617 l 3.350924,-3.574319 c 0,0 -3.426029,-1.804067 -5.212548,-2.159485 -1.786519,-0.355418 -3.427481,-0.569597 -5.287013,0 -1.859532,0.569597 -5.287012,3.57432 -5.287012,3.57432 z"
           id="path18"
           sodipodi:nodetypes="cczzzzzzcczzc" /><path
           style="opacity:1;fill:#8c6e48;fill-opacity:1;stroke:none;stroke-width:0.264583;stroke-linejoin:round;stroke-opacity:1"
           d="m 41.216357,51.492522 10.462329,-0.521253 c 0.359412,0.372606 0.326567,0.702806 0.03723,1.005277 l -10.611257,0.186163 c -0.141403,-0.45307 0.02272,-0.513324 0.111698,-0.670187 z"
           id="path19"
           sodipodi:nodetypes="ccccc" /><path
           style="opacity:1;fill:#b18f69;fill-opacity:1;stroke:none;stroke-width:0.264583;stroke-linejoin:round;stroke-opacity:1"
           d="m 30.083847,88.61331 c 1.42675,0.313784 28.24883,-0.190428 30.456171,-0.819116 2.207341,-0.628688 -1.441405,-9.460669 -1.712695,-13.180298 -0.27129,-3.719629 0.394118,-6.040574 -0.148929,-9.084725 -7.162077,25.064692 -16.524523,19.96698 -28.594547,23.084139 z"
           id="path20"
           sodipodi:nodetypes="czzcc" /></g><g
         id="g21"
         transform="matrix(0.71066463,0,0,0.71304488,31.778302,21.664275)"><path
           id="path13"
           style="fill:#000000;fill-opacity:1;stroke:none;stroke-width:0.264583;stroke-linejoin:round;stroke-opacity:1"
           d="m 134.12695,54.873047 c -0.11255,3.96e-4 -0.47766,0.01011 -0.90429,0.06445 -2.10897,0.04055 -4.243,0.225003 -6.35352,0.462891 l -0.20703,0.02344 -0.19336,0.07813 c -1.29447,0.529457 -2.48229,1.074108 -3.62305,1.625 l -0.0391,-0.01953 -1.10156,0.576172 c -0.40301,0.204095 -0.80229,0.410139 -1.19336,0.61914 l -2.06445,1.060547 0.0684,0.07617 c -2.77647,1.621733 -5.17065,3.291862 -7.4043,4.966797 l -0.0195,0.0039 -2.41016,1.833985 0.004,0.0059 c -1.50197,1.151394 -2.99098,2.294807 -4.5625,3.421875 l -0.0879,0.0625 -15.642582,15.039062 -0.105469,0.179688 c -1.43434,2.455362 -2.863244,5.032061 -3.771484,7.832031 -1.406544,2.39747 -2.140227,3.363467 -2.007813,4.72461 0.110507,1.135932 0.761459,2.054199 1.517579,5.294924 l 0.09766,0.41797 3.800781,3.80078 6.894531,2.69336 0.13086,0.0254 c 4.275827,0.84331 8.127981,1.23529 10.683591,0.0352 l 0.1875,-0.0879 0.15625,-0.13476 C 119.38333,97.966273 132.57748,87.220799 148.58203,68.4375 l 0.39453,-0.462891 -0.36719,-5.677734 -0.27734,-0.361328 c -1.72422,-2.250076 -3.73973,-4.463543 -6.67383,-6 l -0.14062,-0.07422 -0.15235,-0.04297 c -0.90743,-0.252558 -1.81774,-0.423505 -2.71289,-0.558593 -1.07466,-0.3336 -3.44347,-0.390453 -4.52539,-0.386719 z" /><g
           id="g13"
           transform="translate(1.0425095,9.3825858)"><path
             style="opacity:1;fill:#d38d5f;fill-opacity:1;stroke:none;stroke-width:0.264583;stroke-linejoin:round;stroke-opacity:1"
             d="M 84.44327,93.081207 C 82.904554,86.48628 85.596757,81.362976 88.538843,76.326589 L 103.95309,61.508062 c 6.65209,-4.77074 11.72248,-9.778733 22.04163,-13.999413 4.78919,-0.539815 9.52769,-0.851539 13.92495,0.372324 2.65158,1.388517 4.51322,3.408985 6.18059,5.584873 l 0.29786,4.616828 c -15.91387,18.67687 -29.01448,29.346756 -42.44503,40.955729 -2.02734,0.952055 -5.550437,0.680307 -9.754908,-0.148928 L 87.71973,96.357666 Z"
             id="path2"
             sodipodi:nodetypes="ccccccccccc" /><path
             style="opacity:1;fill:#eabc8a;fill-opacity:1;stroke:none;stroke-width:0.264583;stroke-linejoin:round;stroke-opacity:1"
             d="m 99.261799,66.776459 c -0.408048,4.569448 -0.112687,14.075401 -0.03723,12.454265 0.01552,-0.333339 2.059221,5.490371 2.196711,5.398709 1.74403,-1.78699 2.7324,-3.986161 3.38816,-6.366756 l 0.59572,-8.042214 c -1.29033,-1.373447 -2.13376,-3.153172 -4.43067,-3.611551 z"
             id="path3"
             sodipodi:nodetypes="csccccc" /><path
             style="opacity:1;fill:#eabc8a;fill-opacity:1;stroke:none;stroke-width:0.264583;stroke-linejoin:round;stroke-opacity:1"
             d="m 116.91,76.698914 c -1.78876,-3.402936 -1.9892,-7.748921 -2.75521,-11.802695 l -4.62046,-7.593747 1.11926,-0.850133 c 1.29072,-0.168473 2.6945,0.293555 3.98522,1.295243 4.3022,3.018625 5.47564,6.558711 6.25506,10.164466 -0.35861,2.382879 -0.40181,4.765758 -1.78716,7.148637 -0.51611,1.158726 -1.49275,1.32484 -2.19671,1.638229 z"
             id="path4"
             sodipodi:nodetypes="cccccccc" /><path
             style="opacity:1;fill:#eabc8a;fill-opacity:1;stroke:none;stroke-width:0.264583;stroke-linejoin:round;stroke-opacity:1"
             d="m 119.83082,50.420829 c 0.85635,0.670184 3.92995,3.715201 3.92995,3.715201 l 3.12753,13.180298 1.07974,1.600996 2.53181,-5.584872 -1.07974,-8.116681 c -1.02912,-2.028405 -2.54537,-3.407313 -4.4679,-4.244502 l -3.17216,-1.562206 z"
             id="path5"
             sodipodi:nodetypes="ccccccccc" /><path
             style="opacity:1;fill:#eabc8a;fill-opacity:1;stroke:none;stroke-width:0.264583;stroke-linejoin:round;stroke-opacity:1"
             d="m 132.48193,47.03651 c -0.14396,-0.117076 4.22688,-0.0033 4.73318,0.279935 1.13496,1.005277 1.6288,2.128292 2.18331,3.133569 0.14675,3.033943 0.161,5.961893 -0.18617,8.600704 l -1.60099,1.079741 C 136.13649,55.90799 135.22297,51.71122 132.48193,47.03651 Z"
             id="path6"
             sodipodi:nodetypes="cccccc" /><path
             style="opacity:1;fill:#8d5026;fill-opacity:1;stroke:none;stroke-width:0.264583;stroke-linejoin:round;stroke-opacity:1"
             d="M 84.44327,93.081207 C 82.904554,86.48628 81.890761,89.085076 84.832847,84.048689 100.83726,111.15748 135.47799,66.872474 146.39812,58.082674 130.48425,76.759544 117.38364,87.42943 103.95309,99.038403 101.92575,99.990458 98.402653,99.71871 94.198182,98.889475 L 87.71973,96.357666 Z"
             id="path7"
             sodipodi:nodetypes="ccccccc" /></g></g></g><g
       id="g56"
       transform="matrix(0.14632176,0,0,0.14632176,-8.4189726,2.8624175)"
       inkscape:export-filename="SimpleMaterials.png"
       inkscape:export-xdpi="18.412693"
       inkscape:export-ydpi="18.412693"><g
         id="g46"
         transform="matrix(0.79624784,0,0,1,-35.160048,-33.775965)"><path
           id="path33"
           style="fill:#000000;fill-opacity:1;stroke:none;stroke-width:0.264583;stroke-linejoin:round;stroke-opacity:1"
           d="m 211.00977,103.77148 -73.85743,19.79102 v 9.01562 l 16.54493,10.84766 3.10351,-0.88281 14.2832,10.57422 75.68946,-16.96485 0.47851,-8.42578 -4.97656,-3.26172 0.50977,-6.42773 -16.44336,-11.31836 -7.74805,1.42969 z" /><g
           id="g33"><g
             id="g26"><path
               style="opacity:1;fill:#79573f;fill-opacity:1;stroke:none;stroke-width:0.264583;stroke-linejoin:round;stroke-opacity:1"
               d="m 154.09776,134.38171 71.79039,-19.23618 -15.2177,-8.78595 -71.10527,19.05261 z"
               id="path24"
               sodipodi:nodetypes="ccccc" /><path
               style="opacity:1;fill:#624733;fill-opacity:1;stroke:none;stroke-width:0.264583;stroke-linejoin:round;stroke-opacity:1"
               d="m 154.09776,134.38171 v 6.42387 l -14.53258,-9.5305 v -5.86289 z"
               id="path25" /><path
               style="opacity:1;fill:#6c4f38;fill-opacity:1;stroke:none;stroke-width:0.264583;stroke-linejoin:round;stroke-opacity:1"
               d="m 154.09776,140.80558 71.79039,-20.43493 v -5.22512 l -71.79039,19.23618 z"
               id="path26"
               sodipodi:nodetypes="ccccc" /></g><g
             id="g32"
             transform="rotate(3.2558823,-8.081875,454.16117)"><path
               style="opacity:1;fill:#79573f;fill-opacity:1;stroke:none;stroke-width:0.264583;stroke-linejoin:round;stroke-opacity:1"
               d="m 154.09776,134.38171 71.79039,-19.23618 -15.2177,-8.78595 -71.10527,19.05261 z"
               id="path30"
               sodipodi:nodetypes="ccccc" /><path
               style="opacity:1;fill:#624733;fill-opacity:1;stroke:none;stroke-width:0.264583;stroke-linejoin:round;stroke-opacity:1"
               d="m 154.09776,134.38171 v 6.42387 l -14.53258,-9.5305 v -5.86289 z"
               id="path31" /><path
               style="opacity:1;fill:#6c4f38;fill-opacity:1;stroke:none;stroke-width:0.264583;stroke-linejoin:round;stroke-opacity:1"
               d="m 154.09776,140.80558 71.79039,-20.43493 v -5.22512 l -71.79039,19.23618 z"
               id="path32"
               sodipodi:nodetypes="ccccc" /></g><path
             style="fill:#835e44;fill-opacity:1;stroke:none;stroke-width:0.264583;stroke-linejoin:round;stroke-opacity:1"
             d="m 167.18302,132.72953 73.08748,-13.49481 -14.47471,-9.96263 -72.38999,13.36603 z"
             id="path27"
             sodipodi:nodetypes="ccccc" /><path
             style="fill:#6a4c36;fill-opacity:1;stroke:none;stroke-width:0.264583;stroke-linejoin:round;stroke-opacity:1"
             d="m 167.18302,132.72953 -0.50835,6.40372 -13.73282,-10.65063 0.46395,-5.8445 z"
             id="path28" /><path
             style="fill:#76563d;fill-opacity:1;stroke:none;stroke-width:0.264583;stroke-linejoin:round;stroke-opacity:1"
             d="m 166.67467,139.13325 73.18235,-14.6898 0.41348,-5.20873 -73.08748,13.49481 z"
             id="path29"
             sodipodi:nodetypes="ccccc" /></g></g><g
         id="g45"
         transform="rotate(0.040542,-69807.717,-40080.256)"><path
           id="path44"
           style="fill:#000000;fill-opacity:1;stroke:none;stroke-width:0.264583;stroke-linejoin:round;stroke-opacity:1"
           d="m 142.57812,38.367187 c -7.06179,-3.3e-5 -14.60396,1.263953 -14.60546,5.230469 v 59.605474 c -0.001,3.96617 7.54273,5.23245 14.60546,5.23242 5.75151,2e-5 11.81842,-0.84177 13.87305,-3.29492 2.7412,0.91145 7.22222,2.10396 10.27735,1.33007 4.82007,-1.22094 5.91952,-7.083803 8.54687,-7.236325 0,0 2.9693,0.2466 7.43555,5.134765 l 3.60156,3.94336 V 46.144531 l -0.75781,-0.621094 c -6.82811,-5.605013 -11.13086,-5.535156 -11.13086,-5.535156 -4.51504,-0.0272 -7.01623,4.664731 -9.62696,4.767578 0,0 -3.27946,-0.07121 -8.98437,-3.757812 -2.59826,-2.767398 -8.02692,-2.630559 -13.23438,-2.63086 z"
           sodipodi:nodetypes="ccccccssccssccc" /><g
           id="g43"
           transform="translate(-2.6442701)"><path
             style="opacity:1;fill:#edd0be;fill-opacity:1;stroke:none;stroke-width:0.264583;stroke-linejoin:round;stroke-opacity:1"
             d="m 157.1357,42.618425 c 0,0 6.65519,4.355502 10.38847,4.208433 3.54943,-0.139826 5.9794,-4.787158 9.53152,-4.76576 3.68559,0.0222 9.82937,5.06362 9.82937,5.06362 v 55.848722 c 0,0 -5.4965,-6.016568 -9.08472,-5.808267 -3.83921,0.222872 -5.20786,6.353257 -8.9358,7.297567 -3.85837,0.97735 -11.72884,-2.23922 -11.72884,-2.23922 z"
             id="path43"
             sodipodi:nodetypes="cssccsscc" /><path
             id="ellipse41"
             style="opacity:1;fill:#e9c5ac;stroke-width:0.264583;stroke-linejoin:round"
             d="m 157.75342,103.20317 a 12.531815,3.159281 0 0 1 -12.53182,3.15928 12.531815,3.159281 0 0 1 -12.53181,-3.15928 12.531815,3.159281 0 0 1 12.53181,-3.15928 12.531815,3.159281 0 0 1 12.53182,3.15928 z" /><path
             style="opacity:1;fill:#e9c5ac;fill-opacity:1;stroke:none;stroke-width:0.264583;stroke-linejoin:round;stroke-opacity:1"
             d="m 132.68979,43.598076 v 59.605094 h 25.06363 V 43.598076 Z"
             id="path42" /><path
             id="path41"
             style="opacity:1;fill:#f3dccd;stroke-width:0.264583;stroke-linejoin:round"
             d="m 157.75342,43.598076 a 12.531815,3.159281 0 0 1 -12.53182,3.159281 12.531815,3.159281 0 0 1 -12.53181,-3.159281 12.531815,3.159281 0 0 1 12.53181,-3.159281 12.531815,3.159281 0 0 1 12.53182,3.159281 z" /></g></g><g
         id="g55"
         transform="matrix(1.1588399,0,0,1.1588399,-8.8766081,-28.281956)"><g
           id="g54"
           transform="matrix(0.45131569,-1.3340127,1.3340127,0.45131569,-120.71031,128.97924)"><path
             style="opacity:1;fill:#000000;fill-opacity:1;stroke:none;stroke-width:0.264583;stroke-linejoin:round;stroke-opacity:1"
             d="m 42.167969,129.47852 a 0.61275239,0.61275239 0 0 0 -0.146485,0.0312 l -4.541015,1.56445 a 0.61275239,0.61275239 0 0 0 -0.113282,1.10742 l 1.455079,0.86133 3.943359,10.36914 a 0.61275239,0.61275239 0 0 0 1.179687,-0.30274 l -1.617187,-11.39843 0.474609,-1.42774 a 0.61275239,0.61275239 0 0 0 -0.634765,-0.80468 z"
             id="path53" /><path
             style="opacity:1;fill:#b3b3b3;fill-opacity:1;stroke:none;stroke-width:0.264583;stroke-linejoin:round;stroke-opacity:1"
             d="m 37.679272,131.65406 4.542364,-1.56377 -0.521255,1.56377 1.638228,11.54207 -4.021108,-10.57403 z"
             id="path54" /></g><g
           id="g48"
           transform="matrix(1.4082883,0,0,1.4082883,19.874159,-59.470785)"><path
             style="opacity:1;fill:#000000;fill-opacity:1;stroke:none;stroke-width:0.264583;stroke-linejoin:round;stroke-opacity:1"
             d="m 42.167969,129.47852 a 0.61275236,0.61275236 0 0 0 -0.146485,0.0312 l -4.541015,1.56445 a 0.61275236,0.61275236 0 0 0 -0.113282,1.10742 l 1.455079,0.86133 3.943359,10.36914 a 0.61275236,0.61275236 0 0 0 1.179687,-0.30274 l -1.617187,-11.39843 0.474609,-1.42774 a 0.61275236,0.61275236 0 0 0 -0.634765,-0.80468 z"
             id="path48" /><path
             style="opacity:1;fill:#b3b3b3;fill-opacity:1;stroke:none;stroke-width:0.264583;stroke-linejoin:round;stroke-opacity:1"
             d="m 37.679272,131.65406 4.542364,-1.56377 -0.521255,1.56377 1.638228,11.54207 -4.021108,-10.57403 z"
             id="path47" /></g><g
           id="g50"
           transform="matrix(1.2158268,0.7106624,-0.7106624,1.2158268,127.45863,-59.726277)"><path
             style="opacity:1;fill:#000000;fill-opacity:1;stroke:none;stroke-width:0.264583;stroke-linejoin:round;stroke-opacity:1"
             d="m 42.167969,129.47852 a 0.61275237,0.61275237 0 0 0 -0.146485,0.0312 l -4.541015,1.56445 a 0.61275237,0.61275237 0 0 0 -0.113282,1.10742 l 1.455079,0.86133 3.943359,10.36914 a 0.61275237,0.61275237 0 0 0 1.179687,-0.30274 l -1.617187,-11.39843 0.474609,-1.42774 a 0.61275237,0.61275237 0 0 0 -0.634765,-0.80468 z"
             id="path49" /><path
             style="opacity:1;fill:#b3b3b3;fill-opacity:1;stroke:none;stroke-width:0.264583;stroke-linejoin:round;stroke-opacity:1"
             d="m 37.679272,131.65406 4.542364,-1.56377 -0.521255,1.56377 1.638228,11.54207 -4.021108,-10.57403 z"
             id="path50" /></g><g
           id="g52"
           transform="matrix(1.1143255,-0.86113561,0.86113561,1.1143255,-80.722036,22.756191)"><path
             style="opacity:1;fill:#000000;fill-opacity:1;stroke:none;stroke-width:0.264583;stroke-linejoin:round;stroke-opacity:1"
             d="m 42.167969,129.47852 a 0.61275237,0.61275237 0 0 0 -0.146485,0.0312 l -4.541015,1.56445 a 0.61275237,0.61275237 0 0 0 -0.113282,1.10742 l 1.455079,0.86133 3.943359,10.36914 a 0.61275237,0.61275237 0 0 0 1.179687,-0.30274 l -1.617187,-11.39843 0.474609,-1.42774 a 0.61275237,0.61275237 0 0 0 -0.634765,-0.80468 z"
             id="path51" /><path
             style="opacity:1;fill:#b3b3b3;fill-opacity:1;stroke:none;stroke-width:0.264583;stroke-linejoin:round;stroke-opacity:1"
             d="m 37.679272,131.65406 4.542364,-1.56377 -0.521255,1.56377 1.638228,11.54207 -4.021108,-10.57403 z"
             id="path52" /></g></g></g><g
       id="g34"
       transform="matrix(0.69577046,0,0,0.76489846,-75.821445,-39.91708)"
       inkscape:export-filename="CommonOre.png"
       inkscape:export-xdpi="127.27287"
       inkscape:export-ydpi="127.27287"><path
         style="fill:#000000;fill-opacity:1;stroke-width:0.264583;stroke-linejoin:round"
         d="m 118.75586,87.855469 -1.44141,0.279297 -2.64648,6.035156 -2.7832,3.710937 0.0586,6.242191 3.33398,0.33593 2.95899,-0.71289 h 6.30469 l 5.5371,-3.09765 0.16407,-2.92969 -5.26367,-8.433594 -1.10352,-0.351562 -1.58203,0.478515 z"
         id="path34" /><path
         style="fill:#716e71;fill-opacity:1;stroke-width:0.264583;stroke-linejoin:round"
         d="m 112.23732,97.995895 0.0559,5.808265 2.95998,0.29786 2.94137,-0.70742 h 6.25505 l 5.28702,-2.95998 0.14893,-2.624889 -5.13809,-8.228377 -0.87496,-0.279244 -1.601,0.484023 -3.5557,-1.563766 -1.15421,0.223395 -2.58765,5.901349 z"
         id="path1" /><path
         id="path16"
         style="fill:#918c91;fill-opacity:1;stroke-width:0.264583;stroke-linejoin:round"
         d="m 118.71575,88.222522 -1.15393,0.223243 -2.58796,5.901448 -2.73678,3.648873 0.0346,3.551204 3.70933,-4.945951 3.52227,-8.032584 z m 5.15679,1.079521 -0.1881,0.05684 1.27434,0.560689 -0.21136,-0.33848 z" /><path
         style="fill:#000000;fill-opacity:1;stroke-width:0.264583;stroke-linejoin:round"
         d="m 115.58398,92.466797 -1.06054,0.429687 -0.81641,1.642578 -0.0234,0.855469 0.44141,0.421875 0.0273,1.521485 0.68946,0.490234 0.17773,-0.837891 0.47266,0.742188 0.83203,-0.13086 0.41016,-1.205078 1.86328,-1.3125 -1.54883,-1.001953 0.20117,-0.550781 -0.22461,-0.876953 z"
         id="path17" /><path
         style="fill:#cb8c09;fill-opacity:1;stroke-width:0.264583;stroke-linejoin:round"
         d="m 114.35957,95.715406 -0.43748,-0.418867 0.0186,-0.698108 0.75395,-1.517224 0.92151,-0.372325 1.21936,0.158237 0.16755,0.651571 -0.24201,0.660876 1.41483,0.912196 -1.63823,1.154205 -0.39094,1.1449 -0.53987,0.08377 -0.69811,-1.098357 -0.22339,1.051817 -0.29786,-0.214088 z"
         id="path8" /><path
         style="fill:#000000;fill-opacity:1;stroke-width:0.264583;stroke-linejoin:round"
         d="m 125.95313,91.798828 -0.43555,0.53125 -0.0273,1.091797 -0.83984,0.826172 0.65039,1.585937 0.50977,0.228516 0.084,0.951172 1.04102,0.458984 1.4414,-0.253906 0.78516,-3.380859 -1.31836,-1.648438 z"
         id="path22" /><path
         style="fill:#cb8c09;fill-opacity:1;stroke-width:0.264583;stroke-linejoin:round"
         d="m 124.99875,94.319187 0.78188,-0.772573 0.0279,-1.107668 0.26063,-0.316476 1.6103,0.335093 1.16352,1.452067 -0.70742,3.053064 -1.16352,0.204777 -0.8005,-0.353708 -0.0838,-0.949428 -0.55849,-0.25132 z"
         id="path9" /><path
         style="fill:#000000;fill-opacity:1;stroke-width:0.264583;stroke-linejoin:round"
         d="m 121.21094,97.318359 -1.49024,1.1875 0.42774,1.574221 0.66992,0.1914 -0.42383,1.19336 2.01367,0.24219 0.91016,-1.908202 -0.81055,-1.177734 0.084,-0.970703 z"
         id="path23" /><path
         style="fill:#cb8c09;fill-opacity:1;stroke-width:0.264583;stroke-linejoin:round"
         d="m 121.2662,97.567722 -1.28452,1.023893 0.35371,1.303136 0.78188,0.223399 -0.40956,1.1542 1.56376,0.18617 0.78188,-1.638233 -0.78188,-1.135592 0.0745,-0.856348 z"
         id="path10" /><path
         id="path11"
         style="fill:#4d4b4d;fill-opacity:1;stroke-width:0.264583;stroke-linejoin:round"
         d="m 129.13475,96.607024 -0.12609,2.221569 -5.89421,3.300057 h -6.97373 l -3.27939,0.78858 -0.57723,-0.0579 0.009,0.94464 2.96003,0.29817 2.94091,-0.70745 h 6.25543 l 5.28701,-2.96002 0.14883,-2.625166 z" /><path
         id="path12"
         style="fill:#a67308;fill-opacity:1;stroke-width:0.264583;stroke-linejoin:round"
         d="m 122.50053,99.017212 -1.07745,2.257228 -0.68678,-0.0816 -0.0284,0.0796 1.56373,0.18604 0.78186,-1.638146 z" /><path
         id="path14"
         style="fill:#966707;fill-opacity:1;stroke-width:0.264583;stroke-linejoin:round"
         d="m 128.6955,93.726062 -0.65215,2.815333 -1.16324,0.204638 -0.74362,-0.328145 0.0351,0.395841 0.80047,0.353984 1.16323,-0.205156 0.70745,-3.053043 z m -3.63957,0.536402 -0.0574,0.05684 0.53072,1.293461 0.50126,0.225826 -0.0351,-0.395325 -0.5581,-0.251664 z" /><path
         id="path15"
         style="fill:#9b6a07;fill-opacity:1;stroke-width:0.264583;stroke-linejoin:round"
         d="m 116.8585,93.913131 -1.76888,1.246436 -0.70177,2.055171 0.29766,0.213424 0.22324,-1.052132 0.69815,1.098641 0.54002,-0.08372 0.39067,-1.14515 1.63814,-1.153934 -1.4149,-0.912089 z" /></g><g
       id="g79"
       transform="matrix(0.97087995,0,0,1.0087638,-15.326493,-7.0517255)"
       inkscape:export-filename="CommonMetal.png"
       inkscape:export-xdpi="128"
       inkscape:export-ydpi="128"><g
         id="g69"><path
           id="path67"
           style="fill:#000000;fill-opacity:1;stroke-width:0.120456;stroke-linejoin:round"
           d="m 24.435547,48.451172 -5.59961,4.513672 -0.894531,2.34375 3.181641,2.388672 6.582031,-4.941407 -0.773437,-2.429687 z" /><g
           id="g40"
           transform="matrix(0.39921415,0,0,0.51919516,4.6521435,25.082402)"><path
             style="fill:#9b6a07;fill-opacity:1;stroke-width:0.264583;stroke-linejoin:round"
             d="m 35.952636,53.941714 c 0.368583,0.263274 5.30715,3.064085 5.30715,3.064085 L 55.37297,48.857548 49.566575,45.505223 Z"
             id="path38"
             sodipodi:nodetypes="ccccc" /><path
             style="fill:#b07908;fill-opacity:1;stroke-width:0.264583;stroke-linejoin:round"
             d="M 41.259786,57.005799 V 62.32998 L 57.151579,53.154849 55.37297,48.857548 Z"
             id="path39" /><path
             style="fill:#7b5607;fill-opacity:1;stroke-width:0.264583;stroke-linejoin:round"
             d="m 41.259786,62.32998 -7.360695,-4.249698 2.053545,-4.138568 5.30715,3.064085 z"
             id="path40"
             sodipodi:nodetypes="ccccc" /></g></g><g
         id="g73"
         transform="translate(3.3172451,2.5010975)"><path
           id="path69"
           style="fill:#000000;fill-opacity:1;stroke-width:0.120456;stroke-linejoin:round"
           d="m 24.435547,48.451172 -5.59961,4.513672 -0.894531,2.34375 3.181641,2.388672 6.582031,-4.941407 -0.773437,-2.429687 z" /><g
           id="g72"
           transform="matrix(0.39921415,0,0,0.51919516,4.6521435,25.082402)"><path
             style="fill:#9b6a07;fill-opacity:1;stroke-width:0.264583;stroke-linejoin:round"
             d="m 35.952636,53.941714 c 0.368583,0.263274 5.30715,3.064085 5.30715,3.064085 L 55.37297,48.857548 49.566575,45.505223 Z"
             id="path70"
             sodipodi:nodetypes="ccccc" /><path
             style="fill:#b07908;fill-opacity:1;stroke-width:0.264583;stroke-linejoin:round"
             d="M 41.259786,57.005799 V 62.32998 L 57.151579,53.154849 55.37297,48.857548 Z"
             id="path71" /><path
             style="fill:#7b5607;fill-opacity:1;stroke-width:0.264583;stroke-linejoin:round"
             d="m 41.259786,62.32998 -7.360695,-4.249698 2.053545,-4.138568 5.30715,3.064085 z"
             id="path72"
             sodipodi:nodetypes="ccccc" /></g></g><g
         id="g78"
         transform="translate(1.8692413,-0.84247491)"><path
           id="path74"
           style="fill:#000000;fill-opacity:1;stroke-width:0.120456;stroke-linejoin:round"
           d="m 24.435547,48.451172 -5.59961,4.513672 -0.894531,2.34375 3.181641,2.388672 6.582031,-4.941407 -0.773437,-2.429687 z" /><g
           id="g77"
           transform="matrix(0.39921415,0,0,0.51919516,4.6521435,25.082402)"><path
             style="fill:#9b6a07;fill-opacity:1;stroke-width:0.264583;stroke-linejoin:round"
             d="m 35.952636,53.941714 c 0.368583,0.263274 5.30715,3.064085 5.30715,3.064085 L 55.37297,48.857548 49.566575,45.505223 Z"
             id="path75"
             sodipodi:nodetypes="ccccc" /><path
             style="fill:#b07908;fill-opacity:1;stroke-width:0.264583;stroke-linejoin:round"
             d="M 41.259786,57.005799 V 62.32998 L 57.151579,53.154849 55.37297,48.857548 Z"
             id="path76" /><path
             style="fill:#7b5607;fill-opacity:1;stroke-width:0.264583;stroke-linejoin:round"
             d="m 41.259786,62.32998 -7.360695,-4.249698 2.053545,-4.138568 5.30715,3.064085 z"
             id="path77"
             sodipodi:nodetypes="ccccc" /></g></g></g></g></svg>
