<?xml version="1.0" encoding="UTF-8" standalone="no"?>
<!-- Created with Inkscape (http://www.inkscape.org/) -->

<svg
   width="1920"
   height="1080"
   viewBox="0 0 1920 1080"
   version="1.1"
   id="svg5"
   inkscape:version="1.2.2 (732a01da63, 2022-12-09)"
   sodipodi:docname="AbilityCardIcons.svg"
   xmlns:inkscape="http://www.inkscape.org/namespaces/inkscape"
   xmlns:sodipodi="http://sodipodi.sourceforge.net/DTD/sodipodi-0.dtd"
   xmlns="http://www.w3.org/2000/svg"
   xmlns:svg="http://www.w3.org/2000/svg">
  <sodipodi:namedview
     id="namedview7"
     pagecolor="#505050"
     bordercolor="#eeeeee"
     borderopacity="1"
     inkscape:showpageshadow="0"
     inkscape:pageopacity="0"
     inkscape:pagecheckerboard="0"
     inkscape:deskcolor="#505050"
     inkscape:document-units="px"
     showgrid="false"
     inkscape:zoom="2.5613163"
     inkscape:cx="593.44486"
     inkscape:cy="290.08522"
     inkscape:window-width="2560"
     inkscape:window-height="1334"
     inkscape:window-x="-11"
     inkscape:window-y="-11"
     inkscape:window-maximized="1"
     inkscape:current-layer="layer1" />
  <defs
     id="defs2">
    <inkscape:path-effect
       effect="tiling"
       id="path-effect3577"
       is_visible="true"
       lpeversion="1"
       unit="px"
       seed="1;1123454404"
       lpesatellites=""
       num_rows="3"
       num_cols="4"
       gapx="49"
       gapy="-415"
       offset="0"
       offset_type="false"
       scale="-50"
       rotate="-10"
       mirrorrowsx="false"
       mirrorrowsy="false"
       mirrorcolsx="false"
       mirrorcolsy="false"
       mirrortrans="false"
       shrink_interp="false"
       split_items="true"
       link_styles="false"
       interpolate_scalex="false"
       interpolate_scaley="false"
       interpolate_rotatex="false"
       interpolate_rotatey="false"
       random_scale="true"
       random_rotate="true"
       random_gap_y="true"
       random_gap_x="true"
       transformorigin="rotate(180,613.9833,585.28337)" />
    <inkscape:path-effect
       effect="fillet_chamfer"
       id="path-effect2553"
       is_visible="true"
       lpeversion="1"
       nodesatellites_param="F,0,0,1,0,6,0,1 @ F,0,0,1,0,6,0,1 @ F,0,0,1,0,6,0,1 @ F,0,0,1,0,6,0,1 @ F,0,0,1,0,6,0,1 @ F,0,0,1,0,6,0,1 @ F,0,0,1,0,6,0,1 @ F,0,0,1,0,6,0,1 @ F,0,0,1,0,6,0,1 @ F,0,0,1,0,6,0,1 @ F,0,0,1,0,6,0,1 @ F,0,0,1,0,6,0,1"
       unit="px"
       method="auto"
       mode="F"
       radius="6"
       chamfer_steps="1"
       flexible="false"
       use_knot_distance="true"
       apply_no_radius="true"
       apply_with_radius="true"
       only_selected="false"
       hide_knots="false" />
    <inkscape:path-effect
       effect="fillet_chamfer"
       id="path-effect936"
       is_visible="true"
       lpeversion="1"
       nodesatellites_param="F,0,0,1,0,6,0,1 @ F,0,0,1,0,6,0,1 @ F,0,0,1,0,6,0,1 @ F,0,0,1,0,6,0,1 @ F,0,0,1,0,6,0,1 @ F,0,0,1,0,6,0,1 @ F,0,0,1,0,6,0,1 @ F,0,0,1,0,6,0,1 @ F,0,0,1,0,6,0,1 @ F,0,0,1,0,6,0,1 @ F,0,0,1,0,6,0,1 @ F,0,0,1,0,6,0,1"
       unit="px"
       method="auto"
       mode="F"
       radius="6"
       chamfer_steps="1"
       flexible="false"
       use_knot_distance="true"
       apply_no_radius="true"
       apply_with_radius="true"
       only_selected="false"
       hide_knots="false" />
    <inkscape:path-effect
       effect="fillet_chamfer"
       id="path-effect347"
       is_visible="true"
       lpeversion="1"
       nodesatellites_param="F,0,0,1,0,6,0,1 @ F,0,0,1,0,6,0,1 @ F,0,0,1,0,6,0,1 @ F,0,0,1,0,6,0,1 @ F,0,0,1,0,6,0,1 @ F,0,0,1,0,6,0,1 @ F,0,0,1,0,6,0,1 @ F,0,0,1,0,6,0,1 @ F,0,0,1,0,6,0,1 @ F,0,0,1,0,6,0,1 @ F,0,0,1,0,6,0,1 @ F,0,0,1,0,6,0,1"
       unit="px"
       method="auto"
       mode="F"
       radius="6"
       chamfer_steps="1"
       flexible="false"
       use_knot_distance="true"
       apply_no_radius="true"
       apply_with_radius="true"
       only_selected="false"
       hide_knots="false" />
    <filter
       style="color-interpolation-filters:sRGB;"
       inkscape:label="Blur"
       id="filter1319"
       x="-0.020173862"
       y="-0.020173862"
       width="1.0403477"
       height="1.0403477">
      <feGaussianBlur
         stdDeviation="2 2"
         result="blur"
         id="feGaussianBlur1317" />
    </filter>
    <filter
       style="color-interpolation-filters:sRGB;"
       inkscape:label="Feather"
       id="filter2137"
       x="-0.050842421"
       y="-0.21184488"
       width="1.1016848"
       height="1.4236898">
      <feGaussianBlur
         stdDeviation="5"
         result="blur"
         id="feGaussianBlur2129" />
      <feComposite
         in="SourceGraphic"
         in2="blur"
         operator="atop"
         result="composite1"
         id="feComposite2131" />
      <feComposite
         in2="composite1"
         operator="in"
         result="composite2"
         id="feComposite2133" />
      <feComposite
         in2="composite2"
         operator="in"
         result="composite3"
         id="feComposite2135" />
    </filter>
    <mask
       maskUnits="userSpaceOnUse"
       id="mask4189">
      <g
         id="g4193"
         transform="matrix(-1.7532639,0.08733057,-0.10376,-2.0831038,1808.872,1405.4392)">
        <rect
           style="fill:#ffffff;fill-opacity:1;stroke:none;stroke-width:2.611;paint-order:stroke fill markers"
           id="rect4191"
           width="211.60994"
           height="211.60994"
           x="510.28448"
           y="154.608" />
      </g>
    </mask>
    <mask
       maskUnits="userSpaceOnUse"
       id="mask4195">
      <g
         id="g4199"
         transform="matrix(-1.0090366,0.13144273,-0.15617092,-1.1988657,1248.7422,1038.0458)">
        <rect
           style="fill:#ffffff;fill-opacity:1;stroke:none;stroke-width:2.611;paint-order:stroke fill markers"
           id="rect4197"
           width="211.60994"
           height="211.60994"
           x="510.28448"
           y="154.608" />
      </g>
    </mask>
    <mask
       maskUnits="userSpaceOnUse"
       id="mask4201">
      <g
         id="g4205"
         transform="matrix(-1.2233211,0.04672798,-0.05551887,-1.4534634,1249.0471,1063.3216)">
        <rect
           style="fill:#ffffff;fill-opacity:1;stroke:none;stroke-width:2.611;paint-order:stroke fill markers"
           id="rect4203"
           width="211.60994"
           height="211.60994"
           x="510.28448"
           y="154.608" />
      </g>
    </mask>
    <mask
       maskUnits="userSpaceOnUse"
       id="mask4207">
      <g
         id="g4211"
         transform="matrix(-1.2292505,0.10501248,-0.12476839,-1.4605082,1326.6529,1032.9623)">
        <rect
           style="fill:#ffffff;fill-opacity:1;stroke:none;stroke-width:2.611;paint-order:stroke fill markers"
           id="rect4209"
           width="211.60994"
           height="211.60994"
           x="510.28448"
           y="154.608" />
      </g>
    </mask>
    <mask
       maskUnits="userSpaceOnUse"
       id="mask4213">
      <g
         id="g4217"
         transform="matrix(-1.9955525,-0.05034942,0.05982161,-2.3709739,1595.0213,1473.1061)">
        <rect
           style="fill:#ffffff;fill-opacity:1;stroke:none;stroke-width:2.611;paint-order:stroke fill markers"
           id="rect4215"
           width="211.60994"
           height="211.60994"
           x="510.28448"
           y="154.608" />
      </g>
    </mask>
    <mask
       maskUnits="userSpaceOnUse"
       id="mask4219">
      <g
         id="g4223"
         transform="matrix(-1.1757607,0.01442948,-0.01714408,-1.3969554,1419.3595,1065.1096)">
        <rect
           style="fill:#ffffff;fill-opacity:1;stroke:none;stroke-width:2.611;paint-order:stroke fill markers"
           id="rect4221"
           width="211.60994"
           height="211.60994"
           x="510.28448"
           y="154.608" />
      </g>
    </mask>
    <mask
       maskUnits="userSpaceOnUse"
       id="mask4225">
      <g
         id="g4229"
         transform="matrix(-1.3907289,0.0692726,-0.0823048,-1.6523654,1511.8571,1128.5384)">
        <rect
           style="fill:#ffffff;fill-opacity:1;stroke:none;stroke-width:2.611;paint-order:stroke fill markers"
           id="rect4227"
           width="211.60994"
           height="211.60994"
           x="510.28448"
           y="154.608" />
      </g>
    </mask>
    <mask
       maskUnits="userSpaceOnUse"
       id="mask4231">
      <g
         id="g4235"
         transform="matrix(-1.6197923,0,0,-1.9245223,1491.1043,1381.0971)">
        <rect
           style="fill:#ffffff;fill-opacity:1;stroke:none;stroke-width:2.611;paint-order:stroke fill markers"
           id="rect4233"
           width="211.60994"
           height="211.60994"
           x="510.28448"
           y="154.608" />
      </g>
    </mask>
  </defs>
  <g
     inkscape:label="Layer 1"
     inkscape:groupmode="layer"
     id="layer1">
    <g
       id="Heal"
       transform="translate(-134.72296,-94.968642)"
       inkscape:export-filename="..\Images\AbilityCardIcons\Heal.png"
       inkscape:export-xdpi="19.891045"
       inkscape:export-ydpi="19.891045">
      <path
         id="path932"
         style="fill:#6bc05c;fill-opacity:1;stroke:none;stroke-width:2.611;paint-order:stroke fill markers;filter:url(#filter1319)"
         d="m 343.53906,177.76953 0,78.33789 a 6,6 135 0 1 -6,6 h -78.33789 a 6,6 135 0 0 -6,6 v 45.25586 a 6,6 45 0 0 6,6 h 78.33789 a 6,6 45 0 1 6,6 v 78.33789 a 6,6 45 0 0 6,6 h 45.25586 a 6,6 135 0 0 6,-6 l 0,-78.33789 a 6,6 135 0 1 6,-6 h 78.33789 a 6,6 135 0 0 6,-6 v -45.25586 a 6,6 45 0 0 -6,-6 h -78.33789 a 6,6 45 0 1 -6,-6 l 0,-78.33789 a 6,6 45 0 0 -6,-6 l -45.25586,0 a 6,6 135 0 0 -6,6 z"
         inkscape:path-effect="#path-effect936"
         inkscape:original-d="m 343.53906,171.76953 v 90.33789 h -90.33789 v 57.25586 h 90.33789 v 90.33789 h 57.25586 v -90.33789 h 90.33789 v -57.25586 h -90.33789 v -90.33789 z" />
      <path
         id="rect234"
         style="fill:#6bc05c;fill-opacity:1;stroke:none;stroke-width:2.611;paint-order:stroke fill markers"
         d="m 343.53906,177.76953 0,78.33789 a 6,6 135 0 1 -6,6 h -78.33789 a 6,6 135 0 0 -6,6 v 45.25586 a 6,6 45 0 0 6,6 h 78.33789 a 6,6 45 0 1 6,6 v 78.33789 a 6,6 45 0 0 6,6 h 45.25586 a 6,6 135 0 0 6,-6 l 0,-78.33789 a 6,6 135 0 1 6,-6 h 78.33789 a 6,6 135 0 0 6,-6 v -45.25586 a 6,6 45 0 0 -6,-6 h -78.33789 a 6,6 45 0 1 -6,-6 l 0,-78.33789 a 6,6 45 0 0 -6,-6 l -45.25586,0 a 6,6 135 0 0 -6,6 z"
         inkscape:path-effect="#path-effect347"
         inkscape:original-d="m 343.53906,171.76953 v 90.33789 h -90.33789 v 57.25586 h 90.33789 v 90.33789 h 57.25586 v -90.33789 h 90.33789 v -57.25586 h -90.33789 v -90.33789 z" />
      <path
         id="path1736"
         style="fill:#6bc05c;fill-opacity:1;stroke:none;stroke-width:2.611;paint-order:stroke fill markers;filter:url(#filter2137)"
         d="m 396.26653,416.35699 v 22.96588 a 5.0509145,5.0509145 0 0 1 -5.05092,5.05091 h -38.09724 a 5.0509145,5.0509145 0 0 1 -5.05092,-5.05091 v -22.91326 a 118.01173,28.628231 0 0 0 -93.91215,27.96417 118.01173,28.628231 0 0 0 118.01251,28.62843 118.01173,28.628231 0 0 0 118.01087,-28.62843 118.01173,28.628231 0 0 0 -93.91215,-28.01679 z"
         transform="matrix(1.1879037,0,0,1.1879037,-69.931553,-118.17209)" />
    </g>
    <g
       id="g4285"
       transform="translate(4.2946667,-9.7606062)"
       inkscape:export-filename="..\Images\AbilityCardIcons\RainOfArrows.png"
       inkscape:export-xdpi="29.059542"
       inkscape:export-ydpi="29.059542">
      <g
         id="g3575"
         transform="matrix(-0.6173631,0,0,-0.51960947,920.55278,717.63113)"
         mask="url(#mask4231)">
        <path
           id="path3570"
           style="fill:#ffffff;stroke-width:2.611;paint-order:stroke fill markers"
           inkscape:transform-center-y="-14.298539"
           d="m 578.02311,780.62449 14.34697,-0.84216 9.3888,48.79661 -14.20969,-8.29681 -13.14142,9.9023 z"
           sodipodi:nodetypes="cccccc" />
        <path
           id="rect3412"
           d="m 573.8359,667.8217 9.49518,-0.55736 9.49984,161.83867 -9.49518,0.55736 z"
           style="fill:#6c5d53;fill-opacity:1;stroke:none;stroke-width:2.95207;paint-order:stroke fill markers" />
        <path
           id="path3518"
           style="fill:#808080;stroke-width:2.611;paint-order:stroke fill markers"
           inkscape:transform-center-y="-14.298539"
           d="m 576.82621,637.60605 16.56229,48.37554 -14.2097,-8.29681 -13.14141,9.9023 z"
           sodipodi:nodetypes="ccccc" />
        <path
           style="fill:#ffffff;fill-opacity:1;stroke:none;stroke-width:2.611;paint-order:stroke fill markers"
           d="m 589.10912,836.02679 4.73594,80.68124 2.64301,-81.22667 z"
           id="path3696" />
        <path
           style="fill:#ffffff;fill-opacity:1;stroke:none;stroke-width:3.28988;paint-order:stroke fill markers"
           d="M 585.6771,835.05907 593.196,963.15051 578.28115,835.31494 Z"
           id="path3698" />
      </g>
      <g
         transform="matrix(-0.71726782,-0.03007023,0.03572732,-0.60369522,1044.0868,726.75512)"
         id="g3762"
         mask="url(#mask4225)">
        <path
           style="fill:#ffffff;stroke-width:2.611;paint-order:stroke fill markers"
           id="path3752"
           d="m 578.02311,780.62449 14.34697,-0.84216 9.3888,48.79661 -14.20969,-8.29681 -13.14142,9.9023 z" />
        <path
           style="fill:#6c5d53;fill-opacity:1;stroke:none;stroke-width:2.95207;paint-order:stroke fill markers"
           id="path3754"
           d="m 573.8359,667.8217 9.49518,-0.55736 9.49984,161.83867 -9.49518,0.55736 z" />
        <path
           style="fill:#808080;stroke-width:2.611;paint-order:stroke fill markers"
           id="path3756"
           d="m 576.82621,637.60605 16.56229,48.37554 -14.2097,-8.29681 -13.14141,9.9023 z" />
        <path
           style="fill:#ffffff;fill-opacity:1;stroke:none;stroke-width:2.611;paint-order:stroke fill markers"
           id="path3758"
           d="m 589.10912,836.02679 4.73594,80.68124 2.64301,-81.22667 z" />
        <path
           style="fill:#ffffff;fill-opacity:1;stroke:none;stroke-width:3.28988;paint-order:stroke fill markers"
           id="path3760"
           d="M 585.6771,835.05907 593.196,963.15051 578.28115,835.31494 Z" />
      </g>
      <g
         transform="matrix(-0.85038514,-0.00878383,0.01043632,-0.71573466,1195.8864,774.80325)"
         id="g3798"
         mask="url(#mask4219)">
        <path
           style="fill:#ffffff;stroke-width:2.611;paint-order:stroke fill markers"
           id="path3788"
           d="m 578.02311,780.62449 14.34697,-0.84216 9.3888,48.79661 -14.20969,-8.29681 -13.14142,9.9023 z" />
        <path
           style="fill:#6c5d53;fill-opacity:1;stroke:none;stroke-width:2.95207;paint-order:stroke fill markers"
           id="path3790"
           d="m 573.8359,667.8217 9.49518,-0.55736 9.49984,161.83867 -9.49518,0.55736 z" />
        <path
           style="fill:#808080;stroke-width:2.611;paint-order:stroke fill markers"
           id="path3792"
           d="m 576.82621,637.60605 16.56229,48.37554 -14.2097,-8.29681 -13.14141,9.9023 z" />
        <path
           style="fill:#ffffff;fill-opacity:1;stroke:none;stroke-width:2.611;paint-order:stroke fill markers"
           id="path3794"
           d="m 589.10912,836.02679 4.73594,80.68124 2.64301,-81.22667 z" />
        <path
           style="fill:#ffffff;fill-opacity:1;stroke:none;stroke-width:3.28988;paint-order:stroke fill markers"
           id="path3796"
           d="M 585.6771,835.05907 593.196,963.15051 578.28115,835.31494 Z" />
      </g>
      <g
         transform="matrix(-0.50079554,0.01063477,-0.01263548,-0.42149928,817.39296,603.95046)"
         id="g3810"
         mask="url(#mask4213)">
        <path
           style="fill:#ffffff;stroke-width:2.611;paint-order:stroke fill markers"
           id="path3800"
           d="m 578.02311,780.62449 14.34697,-0.84216 9.3888,48.79661 -14.20969,-8.29681 -13.14142,9.9023 z" />
        <path
           style="fill:#6c5d53;fill-opacity:1;stroke:none;stroke-width:2.95207;paint-order:stroke fill markers"
           id="path3802"
           d="m 573.8359,667.8217 9.49518,-0.55736 9.49984,161.83867 -9.49518,0.55736 z" />
        <path
           style="fill:#808080;stroke-width:2.611;paint-order:stroke fill markers"
           id="path3804"
           d="m 576.82621,637.60605 16.56229,48.37554 -14.2097,-8.29681 -13.14141,9.9023 z" />
        <path
           style="fill:#ffffff;fill-opacity:1;stroke:none;stroke-width:2.611;paint-order:stroke fill markers"
           id="path3806"
           d="m 589.10912,836.02679 4.73594,80.68124 2.64301,-81.22667 z" />
        <path
           style="fill:#ffffff;fill-opacity:1;stroke:none;stroke-width:3.28988;paint-order:stroke fill markers"
           id="path3808"
           d="M 585.6771,835.05907 593.196,963.15051 578.28115,835.31494 Z" />
      </g>
      <g
         transform="matrix(-0.80760996,-0.05806823,0.06899256,-0.67973253,1000.1514,779.17446)"
         id="g3846"
         mask="url(#mask4207)">
        <path
           style="fill:#ffffff;stroke-width:2.611;paint-order:stroke fill markers"
           id="path3836"
           d="m 578.02311,780.62449 14.34697,-0.84216 9.3888,48.79661 -14.20969,-8.29681 -13.14142,9.9023 z" />
        <path
           style="fill:#6c5d53;fill-opacity:1;stroke:none;stroke-width:2.95207;paint-order:stroke fill markers"
           id="path3838"
           d="m 573.8359,667.8217 9.49518,-0.55736 9.49984,161.83867 -9.49518,0.55736 z" />
        <path
           style="fill:#808080;stroke-width:2.611;paint-order:stroke fill markers"
           id="path3840"
           d="m 576.82621,637.60605 16.56229,48.37554 -14.2097,-8.29681 -13.14141,9.9023 z" />
        <path
           style="fill:#ffffff;fill-opacity:1;stroke:none;stroke-width:2.611;paint-order:stroke fill markers"
           id="path3842"
           d="m 589.10912,836.02679 4.73594,80.68124 2.64301,-81.22667 z" />
        <path
           style="fill:#ffffff;fill-opacity:1;stroke:none;stroke-width:3.28988;paint-order:stroke fill markers"
           id="path3844"
           d="M 585.6771,835.05907 593.196,963.15051 578.28115,835.31494 Z" />
      </g>
      <g
         transform="matrix(-0.81625588,-0.02624214,0.03117905,-0.68700945,986.3887,763.28964)"
         id="g3858"
         mask="url(#mask4201)">
        <path
           style="fill:#ffffff;stroke-width:2.611;paint-order:stroke fill markers"
           id="path3848"
           d="m 578.02311,780.62449 14.34697,-0.84216 9.3888,48.79661 -14.20969,-8.29681 -13.14142,9.9023 z" />
        <path
           style="fill:#6c5d53;fill-opacity:1;stroke:none;stroke-width:2.95207;paint-order:stroke fill markers"
           id="path3850"
           d="m 573.8359,667.8217 9.49518,-0.55736 9.49984,161.83867 -9.49518,0.55736 z" />
        <path
           style="fill:#808080;stroke-width:2.611;paint-order:stroke fill markers"
           id="path3852"
           d="m 576.82621,637.60605 16.56229,48.37554 -14.2097,-8.29681 -13.14141,9.9023 z" />
        <path
           style="fill:#ffffff;fill-opacity:1;stroke:none;stroke-width:2.611;paint-order:stroke fill markers"
           id="path3854"
           d="m 589.10912,836.02679 4.73594,80.68124 2.64301,-81.22667 z" />
        <path
           style="fill:#ffffff;fill-opacity:1;stroke:none;stroke-width:3.28988;paint-order:stroke fill markers"
           id="path3856"
           d="M 585.6771,835.05907 593.196,963.15051 578.28115,835.31494 Z" />
      </g>
      <g
         transform="matrix(-0.97450778,-0.1068443,0.12694481,-0.82020365,1085.1345,984.82992)"
         id="g3870"
         mask="url(#mask4195)">
        <path
           style="fill:#ffffff;stroke-width:2.611;paint-order:stroke fill markers"
           id="path3860"
           d="m 578.02311,780.62449 14.34697,-0.84216 9.3888,48.79661 -14.20969,-8.29681 -13.14142,9.9023 z" />
        <path
           style="fill:#6c5d53;fill-opacity:1;stroke:none;stroke-width:2.95207;paint-order:stroke fill markers"
           id="path3862"
           d="m 573.8359,667.8217 9.49518,-0.55736 9.49984,161.83867 -9.49518,0.55736 z" />
        <path
           style="fill:#808080;stroke-width:2.611;paint-order:stroke fill markers"
           id="path3864"
           d="m 576.82621,637.60605 16.56229,48.37554 -14.2097,-8.29681 -13.14141,9.9023 z" />
        <path
           style="fill:#ffffff;fill-opacity:1;stroke:none;stroke-width:2.611;paint-order:stroke fill markers"
           id="path3866"
           d="m 589.10912,836.02679 4.73594,80.68124 2.64301,-81.22667 z" />
        <path
           style="fill:#ffffff;fill-opacity:1;stroke:none;stroke-width:3.28988;paint-order:stroke fill markers"
           id="path3868"
           d="M 585.6771,835.05907 593.196,963.15051 578.28115,835.31494 Z" />
      </g>
      <g
         transform="matrix(-0.56895317,-0.02385239,0.02833972,-0.47886479,989.33371,716.16127)"
         id="g3981"
         mask="url(#mask4189)">
        <path
           style="fill:#ffffff;stroke-width:2.611;paint-order:stroke fill markers"
           id="path3971"
           d="m 578.02311,780.62449 14.34697,-0.84216 9.3888,48.79661 -14.20969,-8.29681 -13.14142,9.9023 z" />
        <path
           style="fill:#6c5d53;fill-opacity:1;stroke:none;stroke-width:2.95207;paint-order:stroke fill markers"
           id="path3973"
           d="m 573.8359,667.8217 9.49518,-0.55736 9.49984,161.83867 -9.49518,0.55736 z" />
        <path
           style="fill:#808080;stroke-width:2.611;paint-order:stroke fill markers"
           id="path3975"
           d="m 576.82621,637.60605 16.56229,48.37554 -14.2097,-8.29681 -13.14141,9.9023 z" />
        <path
           style="fill:#ffffff;fill-opacity:1;stroke:none;stroke-width:2.611;paint-order:stroke fill markers"
           id="path3977"
           d="m 589.10912,836.02679 4.73594,80.68124 2.64301,-81.22667 z" />
        <path
           style="fill:#ffffff;fill-opacity:1;stroke:none;stroke-width:3.28988;paint-order:stroke fill markers"
           id="path3979"
           d="M 585.6771,835.05907 593.196,963.15051 578.28115,835.31494 Z" />
      </g>
    </g>
  </g>
</svg>
